<svg xmlns="http://www.w3.org/2000/svg" width="90" height="90" viewBox="0 0 60 60"><path d="M21.93,33.92a.88.88,0,0,0,1,1.21c3.81-.87,8-.92,11.56.95.48.21.94.72,1.5.48A.88.88,0,0,0,36.14,35a16,16,0,0,0-9.09-2.2,25,25,0,0,0-3.95.51C22.66,33.39,22.13,33.45,21.93,33.92Zm-1.54-8a1.32,1.32,0,0,0,1.64.83A21.29,21.29,0,0,1,27.29,26a22.79,22.79,0,0,1,10.08,1.9c.64.28,1.28.9,2,.59a1.33,1.33,0,0,0,.36-2.27,18.71,18.71,0,0,0-6.2-2.3,28.45,28.45,0,0,0-7.87-.46,20.84,20.84,0,0,0-4.5.81A1.32,1.32,0,0,0,20.39,26Zm5,2.38A18.2,18.2,0,0,0,22,29a1.1,1.1,0,0,0,.63,2.1A16.05,16.05,0,0,1,27,30.44a17.8,17.8,0,0,1,9.71,2.34,1.1,1.1,0,0,0,1.58-1.05,1.34,1.34,0,0,0-.87-1.07A20.46,20.46,0,0,0,25.39,28.34ZM16.5,33.72A14,14,0,0,1,28.34,16.1,14,14,0,1,1,16.5,33.72Z" style="fill:#fff"/></svg>