<?xml version="1.0" encoding="utf-8"?>
<!-- Generator: Adobe Illustrator 25.2.0, SVG Export Plug-In . SVG Version: 6.00 Build 0)  -->
<svg version="1.1" xmlns="http://www.w3.org/2000/svg" xmlns:xlink="http://www.w3.org/1999/xlink" x="0px" y="0px" width="1920px"
	 height="1294px" viewBox="0 0 1920 1294" style="enable-background:new 0 0 1920 1294;" xml:space="preserve">
<style type="text/css">
	.st0{fill:#313437;}
	.st1{fill:#171B1E;}
	.st2{fill:#A8A9AC;}
	.st3{fill:#C3171B;}
</style>
<g id="Hintergrund_xA0_Bild_1_">
	<image style="overflow:visible;" width="1920" height="1294" id="Hintergrund_xA0_Bild" xlink:href="6DED14FB.jpg" >
	</image>
</g>
<g id="Ebene_1_xA0_Bild_1_">
	<rect x="-8.3" y="-2.2" class="st0" width="1928.3" height="1296.2"/>
	<g>
		<g>
			<path class="st1" d="M693,0c-6.5,17.2-13,34.5-19.6,51.7C649,115.5,624.5,179.4,600,243.2c-20.6,53.9-41.4,107.7-62,161.6
				c-22.5,58.8-44.8,117.7-67.3,176.5c-18.3,47.9-36.8,95.7-55.2,143.6c-12.7,33-25.4,66-38,99c-15.2,39.8-30.4,79.6-45.6,119.3
				c-12.1,31.5-24.2,63-36.3,94.5c-13.6,35.6-27.2,71.3-40.9,106.9c-14.9,38.7-29.9,77.3-44.7,115.9c-4.2,11.1-8.1,22.3-12.1,33.4
				c-6.7,0-13.3,0-20,0c17.6-45.7,35.2-91.4,52.7-137.2c16.6-43.3,32.9-86.6,49.5-129.9c18.1-47.1,36.4-94.2,54.4-141.3
				c16.9-44.2,33.5-88.6,50.5-132.8c23.5-61.3,47.2-122.4,70.7-183.7c20.5-53.4,40.7-106.9,61.2-160.4
				c27.3-71.4,54.7-142.7,82-214.1c23.3-60.8,46.6-121.6,69.9-182.4c1.6-4.1,3.3-8.2,4.9-12.4C680.3,0,686.7,0,693,0z"/>
			<path class="st1" d="M863,0c-3.4,9.4-6.7,18.8-10.3,28.2c-16.1,42.1-32.3,84.1-48.5,126.2c-20.9,54.5-41.8,109-62.7,163.5
				c-23.7,61.9-47.2,123.8-70.9,185.6c-15.3,40.1-30.8,80-46.2,120.1c-18.2,47.3-36.3,94.6-54.4,141.8
				c-19.8,51.8-39.5,103.6-59.3,155.3c-11.6,30.4-23.4,60.8-35.1,91.2c-10.2,26.5-20.3,53.1-30.5,79.7
				c-19.9,51.9-39.9,103.8-59.8,155.7c-5.9,15.5-11.5,31.1-17.3,46.7c-6.7,0-13.3,0-20,0c14-36.3,28-72.7,42-109.1
				c16.3-42.4,32.5-84.8,48.7-127.2c19.1-50,38.2-100.1,57.3-150.1c15.2-39.6,30.6-79.1,45.7-118.7c15.5-40.4,30.8-80.8,46.3-121.2
				c15.9-41.5,31.9-82.9,47.8-124.3c10.3-26.7,20.4-53.5,30.6-80.3c13-33.9,26-67.8,39-101.7c15.6-40.8,31.1-81.6,46.8-122.4
				c14.1-36.7,28.3-73.3,42.4-110C810.9,86.8,827,44.5,843.1,2.3c0.3-0.8,0.6-1.5,0.9-2.3C850.3,0,856.7,0,863,0z"/>
			<path class="st1" d="M991,0c-16.3,42.5-32.7,85-49,127.6c-15.5,40.5-30.9,81.1-46.4,121.7c-17.9,46.7-35.8,93.4-53.7,140
				c-19.3,50.3-38.6,100.7-57.9,151c-18.5,48.2-36.9,96.3-55.4,144.5c-23.8,62-47.7,124.1-71.4,186.1
				c-20.5,53.4-40.8,107-61.2,160.4c-22.2,58-44.6,116-66.9,174c-10.8,28.1-21.5,56.2-32.2,84.4c-0.5,1.3-0.6,2.9-0.9,4.3
				c-6.7,0-13.3,0-20,0c7.6-20,15.1-40,22.7-59.9c15.8-41.5,31.7-82.9,47.6-124.4c17.6-46.1,35.3-92.1,52.9-138.2
				c14.7-38.4,29.5-76.7,44.2-115.1c21.7-56.6,43.3-113.3,65-170c15.9-41.5,31.8-82.9,47.7-124.4c20-52.1,39.9-104.2,59.8-156.2
				c13.9-36.2,27.9-72.4,41.8-108.6c16.8-43.7,33.4-87.5,50.2-131.3c13.6-35.6,27.3-71.2,41-106.8c7.2-18.9,14.4-37.8,21.6-56.7
				c0.3-0.8,0.3-1.6,0.4-2.4C977.7,0,984.3,0,991,0z"/>
			<path class="st1" d="M948,0c-4.1,11.2-8.2,22.5-12.4,33.7C921.8,69.8,907.9,105.9,894,142c-14.5,37.9-29,75.9-43.6,113.8
				c-14.3,37.5-28.7,74.9-43.1,112.3c-14.4,37.6-28.9,75.2-43.4,112.8c-19.1,49.8-38,99.5-57.1,149.3
				c-21.1,55.1-42.2,110.3-63.4,165.4c-19.4,50.7-38.8,101.3-58.3,152c-19,49.4-37.9,98.8-56.9,148.3c-16,41.6-31.9,83.2-47.8,124.8
				c-9.1,23.8-18.2,47.6-27.2,71.4c-0.2,0.6-0.3,1.3-0.4,1.9c-6.3,0-12.7,0-19,0c2.5-7.3,4.7-14.7,7.5-21.8
				c11.7-30.5,23.6-61,35.3-91.6c14.3-37.2,28.4-74.4,42.6-111.5c21.5-56.2,43.1-112.4,64.6-168.6c15.2-39.6,30.5-79.2,45.7-118.8
				c15.7-41,31.3-82,47-123c19.6-51.1,39.2-102.2,58.7-153.3c24.3-63.6,48.6-127.2,72.9-190.8c18.9-49.3,37.8-98.6,56.7-147.8
				C885,114.8,905,63,924.9,11.1c1.4-3.7,2.7-7.4,4.1-11.1C935.3,0,941.7,0,948,0z"/>
			<path class="st1" d="M519,1294c2-5.9,3.8-11.8,6-17.6c20.6-53.7,41.3-107.4,61.9-161.1c25.5-66.6,50.9-133.3,76.4-199.9
				c15-39.1,30-78.2,45-117.4c20-52.2,40-104.4,60-156.5c18.3-47.8,36.6-95.5,54.9-143.3c19.1-49.9,38.1-99.8,57.3-149.7
				c20.5-53.4,41.1-106.7,61.5-160.1c22.2-57.9,44.2-115.8,66.3-173.6c1.9-4.9,3.8-9.8,5.7-14.7c6.3,0,12.7,0,19,0
				c-4.4,12.2-8.7,24.4-13.3,36.5c-13.3,34.9-26.7,69.7-40.1,104.6c-25,65.1-49.9,130.1-74.9,195.2c-16.5,43.1-33.1,86.2-49.6,129.3
				c-18.6,48.6-37.2,97.2-55.9,145.9c-18.4,48-36.8,96.1-55.2,144.1c-25,65.3-50,130.5-75,195.8c-18.7,48.7-37.4,97.3-56,146
				c-18.1,47.3-36,94.6-54.1,141.9c-7,18.3-13.9,36.5-20.9,54.7C531.7,1294,525.3,1294,519,1294z"/>
			<path class="st1" d="M778,0c-5.5,14.6-10.9,29.3-16.4,43.8C747.8,80,733.9,116,720,152.1c-12.6,32.8-25.2,65.7-37.8,98.5
				c-15.8,41.2-31.5,82.3-47.2,123.5c-14.1,36.8-28.2,73.7-42.3,110.5c-15.7,41-31.4,82-47.1,123c-15.2,39.8-30.4,79.5-45.6,119.3
				c-17.4,45.5-34.9,90.9-52.3,136.4c-15.7,40.8-31.3,81.7-47,122.5c-21.6,56.4-43.1,112.7-64.7,169.1
				c-17.5,45.6-35,91.2-52.4,136.7c-0.3,0.8-0.4,1.6-0.5,2.4c-6.7,0-13.3,0-20,0c14-36.4,28-72.8,42-109.2
				c18.5-48.2,37-96.4,55.4-144.6c16-41.8,31.8-83.6,47.8-125.4c11.1-29,22.5-58,33.6-87c16.4-42.7,32.7-85.4,49.1-128.2
				c18.4-47.9,36.7-95.8,55.1-143.7c24.8-64.6,49.5-129.3,74.3-193.9c23.4-61.1,46.8-122.2,70.2-183.3
				c18.6-48.6,37.1-97.3,55.8-145.9c4.2-10.9,8.5-21.7,12.8-32.6C765.3,0,771.7,0,778,0z"/>
			<path class="st1" d="M821,0c-17.7,46-35.3,92.1-53,138.1c-18.2,47.3-36.4,94.6-54.5,141.9c-15,39.1-29.8,78.3-44.8,117.4
				c-18,47-36,93.9-54,140.9c-17.6,45.7-35.1,91.5-52.7,137.2c-19,49.6-38,99.2-57,148.9c-14.1,37-28.1,74.1-42.3,111.1
				c-25,65.1-50.1,130.1-75.1,195.1c-18.9,49.2-37.7,98.5-56.6,147.7c-2,5.2-4,10.4-6,15.6c-6.3,0-12.7,0-19,0
				c6.9-18.3,13.7-36.6,20.7-54.8c22.1-58,44.3-116.1,66.5-174.1c11.5-30,23.2-59.8,34.7-89.8c15.7-41,31.4-82,47-123
				c14.8-38.7,29.6-77.4,44.4-116.1c18.2-47.6,36.4-95.2,54.6-142.8c20.3-52.9,40.7-105.9,61-158.8c22.3-58.2,44.6-116.5,66.9-174.7
				c19.3-50.4,38.7-100.7,57.9-151.1c13.6-35.5,27.1-70.9,40.6-106.4c0.3-0.8,0.4-1.6,0.5-2.4C807.7,0,814.3,0,821,0z"/>
			<path class="st1" d="M391,1294c7.7-20.5,15.3-41,23.1-61.4c18.3-47.9,36.6-95.8,55-143.6c17.1-44.5,34.1-89,51.2-133.6
				c11.5-30.1,23.1-60.1,34.7-90.2c14.9-38.8,29.8-77.7,44.6-116.5c18.5-48.4,37-96.8,55.5-145.2c22.6-59.1,45.4-118.2,68-177.3
				c21.4-55.8,42.7-111.5,64-167.3c17.3-45.1,34.6-90.3,51.9-135.4C854.5,83.6,869.7,43.7,885,3.8c0.5-1.2,0.7-2.5,1-3.8
				c6.7,0,13.3,0,20,0c-14.3,37.3-28.7,74.6-43,111.9c-14.1,36.8-28.2,73.7-42.3,110.6c-16.7,43.6-33.3,87.2-50,130.8
				c-15.8,41.1-31.8,82.2-47.6,123.3c-18,47-35.9,94-53.9,141c-18.5,48.4-37.1,96.7-55.6,145c-20.7,54-41.4,108.1-62.1,162.1
				c-15,39.1-30.1,78.2-45.1,117.3c-17.3,45.1-34.4,90.3-51.6,135.5c-14.2,37.2-28.6,74.3-42.9,111.5c-0.6,1.7-1.3,3.3-2,5
				C403.7,1294,397.3,1294,391,1294z"/>
			<path class="st1" d="M221,1294c6.9-18.3,13.6-36.6,20.6-54.8c17.8-46.5,35.6-93,53.4-139.5c18.3-47.6,36.6-95.2,54.8-142.8
				c18.5-48.4,36.8-96.8,55.3-145.1c14.3-37.5,28.8-74.9,43.2-112.3c13.3-34.7,26.6-69.4,39.9-104.1c19.8-51.5,39.7-103,59.4-154.6
				c21.9-57.3,43.6-114.6,65.6-171.8c26-68,52.2-135.9,78.3-203.8c8-20.7,15.8-41.5,23.7-62.3c0.3-0.9,0.5-1.9,0.7-2.8
				c6.7,0,13.3,0,20,0c-9.7,25.1-19.3,50.2-29,75.4c-16.6,43.1-33.2,86.3-49.7,129.5c-17.9,46.7-35.6,93.5-53.5,140.2
				c-13.7,35.8-27.5,71.5-41.2,107.3c-16.9,44.2-33.8,88.5-50.8,132.7c-20.2,52.5-40.5,105-60.6,157.5
				c-18.5,48.1-36.7,96.2-55.2,144.3c-19.8,51.8-39.8,103.5-59.6,155.2c-20.3,53-40.4,106-60.7,159c-11.9,31-23.8,62-35.7,92.9
				C233.7,1294,227.3,1294,221,1294z"/>
			<path class="st1" d="M1076,0c-18.9,49.3-37.7,98.7-56.6,148c-22.6,58.9-45.2,117.9-67.8,176.8c-15.2,39.7-30.5,79.5-45.7,119.2
				c-19.6,51.1-39.3,102.3-58.8,153.4c-21.2,55.3-42.2,110.6-63.4,165.9c-18,47-36.3,93.9-54.3,140.8
				c-23.3,60.8-46.4,121.6-69.7,182.4c-16.1,42.1-32.4,84.1-48.5,126.2c-6.9,18-13.7,36-20.4,54.1c-1.6,4.3-3.9,7.2-8.4,8.8
				c-5.7,2-11.1,4.8-17.6,7.8c3.4-9,6.6-17.2,9.7-25.3c20.5-53.8,41-107.6,61.6-161.3c24.4-63.6,49-127.1,73.4-190.7
				c21.7-56.5,43.1-113.1,64.7-169.6c16-41.9,32.3-83.8,48.4-125.7c16-41.6,31.9-83.2,47.9-124.8c14.2-37.1,28.3-74.3,42.6-111.4
				c12.4-32.4,24.9-64.8,37.3-97.2c10.6-27.6,21.2-55.3,31.7-83c14.8-38.7,29.6-77.5,44.4-116.2c9.4-24.4,18.8-48.7,28.2-73.1
				c0.6-1.7,0.9-3.5,1.3-5.2C1062.7,0,1069.3,0,1076,0z"/>
			<path class="st1" d="M651,0c-6.8,17.6-13.6,35.3-20.4,52.9c-14.6,37.9-29.1,75.8-43.6,113.7c-15,39.1-30,78.3-45,117.4
				c-22.7,59.3-45.4,118.5-68.1,177.8c-19.7,51.4-39.3,102.9-59,154.3c-18.4,48-37,96-55.4,144.1c-19.3,50.3-38.3,100.8-57.5,151.1
				c-15,39.2-30.1,78.3-45.2,117.4c-18.1,47.1-36.2,94.2-54.3,141.4c-12.9,33.8-25.8,67.6-38.6,101.3c-0.2,0.4-0.6,0.7-1.2,1.6
				c-2.7-9.1-5.4-17.7-7.9-26.4c-0.3-1-0.1-2.2,0.3-3.2c22.3-58.2,44.6-116.3,66.9-174.5c18.5-48.2,36.8-96.5,55.3-144.8
				c16.5-43.2,33.3-86.3,49.8-129.5c20.2-52.8,40.3-105.7,60.5-158.5c19.9-52.1,40-104.1,60-156.1c19-49.6,37.9-99.2,56.9-148.8
				c18.2-47.4,36.4-94.9,54.6-142.3c23.9-62.3,47.8-124.7,71.6-187c0.2-0.6,0.3-1.3,0.4-1.9C637.7,0,644.3,0,651,0z"/>
			<path class="st1" d="M1118,0c-3.8,10.5-7.5,21-11.5,31.4c-19.5,51.1-39.1,102.3-58.7,153.4c-15.6,40.8-31.3,81.7-47,122.5
				c-15,39-29.9,78-44.9,117c-11.6,30.1-23.3,60.1-34.8,90.2c-21.2,55.6-42.3,111.3-63.6,166.9c-16.2,42.4-32.7,84.7-48.9,127.1
				c-22.1,57.7-44.2,115.4-66.2,173.1c-18.3,47.8-36.6,95.5-54.9,143.3c-15.1,39.3-30.4,78.5-45.1,117.9c-2.3,6.2-5.8,9.3-11.5,11.3
				c-4.9,1.8-9.5,4.1-14.8,6.4c18.2-47.8,36.1-94.8,54-141.7c20.3-53,40.8-105.8,61.1-158.8c17.9-46.7,35.7-93.4,53.6-140
				c17-44.4,34-88.7,51-133.1c18-47.1,36-94.3,54-141.3c14.8-38.7,29.9-77.3,44.7-116c15.8-41.2,31.4-82.4,47.2-123.6
				c22.3-58.2,44.7-116.4,67-174.6c15.8-41.3,31.5-82.6,47.3-124c0.9-2.4,1.9-4.9,2.8-7.3C1105.3,0,1111.7,0,1118,0z"/>
			<path class="st1" d="M1161,0c-18.5,48.2-36.9,96.4-55.4,144.7c-28.4,74-56.8,148-85.1,222c-24.3,63.6-48.6,127.1-72.9,190.7
				c-16.9,44.1-33.8,88.1-50.7,132.2c-21.4,55.8-42.6,111.5-64,167.3c-24.6,64.2-49.3,128.3-73.9,192.5
				c-20.8,54.2-41.8,108.3-62.1,162.7c-4.1,11-9,19.3-21,22c-2.6,0.6-5,2.2-8.5,3.8c3.6-9.5,7-18.1,10.3-26.8
				c19.9-52.1,39.7-104.2,59.7-156.3c19.7-51.3,39.5-102.4,59.2-153.7c16.6-43.3,33-86.7,49.6-130c13.7-35.8,27.4-71.5,41.1-107.3
				c12.6-33,25.2-66,37.9-98.9c12.3-32.1,24.6-64.2,36.9-96.2c15.6-40.7,31.3-81.3,46.9-122c13.5-35.3,26.8-70.7,40.3-106.1
				c15.6-40.7,31.3-81.4,46.9-122c14.7-38.4,29.4-76.8,44.1-115.2c0.4-1,0.5-2.2,0.8-3.3C1147.7,0,1154.3,0,1161,0z"/>
			<path class="st1" d="M1203,0c-3.4,9.4-6.5,18.9-10.1,28.3c-14.8,38.7-29.8,77.3-44.7,116c-16.1,42-32.1,84-48.1,125.9
				c-14,36.6-28.1,73.1-42.1,109.7c-17,44.5-34,89-51,133.4c-12.1,31.7-24.5,63.2-36.6,94.9c-12.5,32.7-24.9,65.4-37.4,98.1
				c-12.4,32.4-24.7,64.8-37.2,97.2c-15.9,41.5-31.9,82.9-47.8,124.3c-10.3,26.7-20.5,53.5-30.7,80.2
				c-13.8,35.9-27.5,71.8-41.3,107.7c-11,28.9-22,57.8-33.1,86.7c-0.5,1.3-1.6,2.7-2.7,3.3c-6.8,3.2-13.8,6.1-21.5,9.4
				c3.8-10,7.2-19.3,10.8-28.6c11.8-30.8,23.7-61.7,35.5-92.5c19.3-50.2,38.7-100.4,57.9-150.7c17.9-46.7,35.5-93.5,53.4-140.2
				C892,762.1,908,721,923.7,679.9c15.9-41.6,31.7-83.3,47.7-124.9c14.2-37,28.5-74,42.7-111c14.3-37.3,28.6-74.6,42.9-111.9
				c17.9-46.7,35.8-93.4,53.7-140.1c17-44.5,34.1-88.9,51.1-133.4c7.5-19.5,14.8-39.1,22.2-58.6C1190.3,0,1196.7,0,1203,0z"/>
			<path class="st1" d="M608,0c-5.5,14.6-10.9,29.3-16.5,43.9c-15.8,41.5-31.7,82.9-47.6,124.4c-12.8,33.5-25.8,66.9-38.6,100.3
				c-16.9,44.1-33.6,88.2-50.5,132.3c-14.7,38.4-29.6,76.7-44.3,115.1c-13.2,34.4-26.3,68.8-39.5,103.2
				c-11.4,29.8-22.8,59.6-34.2,89.4c-17.4,45.4-34.8,90.9-52.2,136.3c-17.1,44.5-34.2,89-51.3,133.5
				c-16.8,43.8-33.5,87.5-50.2,131.3c-12.4,32.6-24.8,65.1-37.2,97.7c-0.4,1-1.1,1.8-2,3.3c-2.7-8.7-5.4-16.8-7.6-25
				c-0.5-2,0-4.6,0.8-6.7c19.1-49.9,38.2-99.8,57.4-149.7c22.8-59.3,45.6-118.5,68.3-177.8c11.2-29.3,22.2-58.8,33.5-88.1
				c12.7-33.2,25.7-66.3,38.4-99.4c19.5-50.8,38.9-101.7,58.4-152.5c15.5-40.4,30.9-80.8,46.4-121.2c14.7-38.4,29.4-76.8,44.1-115.3
				c17.2-44.8,34.4-89.7,51.6-134.5C552.4,95.3,569.7,50.2,587,5c0.6-1.7,1.3-3.4,2-5C595.3,0,601.7,0,608,0z"/>
			<path class="st1" d="M1246,0c-9.1,23.8-18.1,47.6-27.2,71.4c-15.6,40.6-31.2,81.1-46.7,121.6c-19.1,49.9-38,99.8-57.1,149.7
				c-21.2,55.3-42.6,110.5-63.8,165.8c-17.2,44.8-34.2,89.8-51.3,134.6c-12.5,32.7-25.2,65.3-37.8,98c-15.8,41.3-31.5,82.7-47.3,124
				c-15.6,40.8-31.4,81.7-47,122.5c-16,41.6-31.8,83.2-47.8,124.8c-8.4,21.8-16.6,43.6-25.2,65.3c-1,2.4-3.4,4.8-5.7,6
				c-5.9,3.1-12.2,5.5-19.1,8.5c5.6-14.8,10.9-28.7,16.2-42.6c18.7-48.8,37.4-97.7,56.1-146.5c17.4-45.4,34.9-90.8,52.3-136.2
				c16.1-41.9,32.3-83.8,48.3-125.7c15.9-41.5,31.5-83,47.4-124.4c19.2-50.1,38.6-100.1,57.8-150.1c21.1-55.2,42.1-110.4,63.3-165.6
				c20.3-53,40.7-105.9,61-158.8c17.9-46.6,35.8-93.3,53.7-140c0.3-0.7,0.1-1.6,0.2-2.4C1232.7,0,1239.3,0,1246,0z"/>
			<path class="st1" d="M1288,0c-2.9,8-5.6,16.1-8.6,24.1c-16.1,42.3-32.3,84.5-48.4,126.7c-15,39.2-30,78.3-45.1,117.4
				c-19.2,50-38.5,100.1-57.7,150.1c-11.8,30.9-23.5,61.8-35.3,92.7c-12.7,33.3-25.5,66.6-38.3,99.9c-14.5,37.8-29,75.5-43.5,113.2
				c-18.6,48.5-37.1,97.1-55.7,145.6c-19.2,50.2-38.4,100.4-57.7,150.6c-14.3,37.3-28.6,74.7-42.9,112c-3.1,8.1-6.3,16.2-9.6,24.3
				c-0.6,1.4-1.6,2.9-2.9,3.5c-6.6,3.2-13.4,6.1-21.3,9.6c3.2-8.3,5.9-15.5,8.7-22.7c16.8-44.1,33.6-88.3,50.5-132.3
				c14.7-38.3,29.5-76.4,44.1-114.7c17-44.4,33.9-88.8,50.9-133.1c13-33.9,26.2-67.8,39.2-101.7c17.6-45.9,35.1-91.8,52.6-137.7
				c17-44.4,34.1-88.7,51.1-133.1c15.7-41,31.3-82,47-123c13.5-35.2,27.1-70.3,40.5-105.5c12.8-33.5,25.6-67,38.4-100.4
				c8.1-21.2,16.4-42.4,24.5-63.6c0.2-0.6,0.3-1.3,0.4-1.9C1275.3,0,1281.7,0,1288,0z"/>
			<path class="st1" d="M1331,0c-10,26.3-20,52.5-30,78.8c-18.4,48.2-36.7,96.5-55.2,144.7c-15,39.2-30.1,78.2-45.2,117.4
				c-14.8,38.4-29.6,76.7-44.3,115.1c-15.9,41.6-31.8,83.3-47.7,125c-17.3,45.2-34.6,90.3-51.9,135.5
				c-13.4,34.8-26.8,69.6-40.1,104.5c-19.7,51.5-39.2,103-58.9,154.4c-20.2,52.8-40.6,105.6-61,158.4c-0.7,1.8-2.6,3.6-4.4,4.5
				c-6.3,3.1-12.7,5.8-20,9c6.3-16.5,12.2-32.1,18.2-47.7c27.8-72.5,55.6-144.9,83.3-217.4c17.5-45.6,34.8-91.2,52.2-136.8
				c19.4-50.5,38.8-101,58.2-151.5c22-57.4,43.9-114.9,66-172.4c18.4-48,37-96,55.4-144.1c17.6-46,35.1-92.1,52.7-138.2
				c17.1-44.7,34.4-89.3,51.5-133.9c0.6-1.7,0.8-3.5,1.2-5.2C1317.7,0,1324.3,0,1331,0z"/>
			<path class="st1" d="M565,0c-2.4,7-4.6,14-7.2,20.9c-23.7,61.9-47.5,123.8-71.2,185.7c-24.4,63.6-48.6,127.2-73,190.8
				c-23.2,60.5-46.4,120.9-69.6,181.3c-23.5,61.3-47,122.6-70.5,183.9c-16.6,43.4-33.3,86.8-49.9,130.3
				c-18.3,47.9-36.6,95.8-55,143.7c-13.8,35.9-27.6,71.8-41.4,107.8c-0.5,1.3-1.1,2.6-2,4.8c-2.9-9.6-5.6-18.4-8.1-27.2
				c-0.3-1.2,0.4-2.9,0.9-4.2c20.2-52.7,40.5-105.3,60.7-158c14.8-38.6,29.5-77.1,44.2-115.7c15.6-40.8,31.3-81.7,47-122.5
				c14.8-38.5,29.4-77.1,44.2-115.7c17.9-46.9,35.9-93.7,53.9-140.5c19-49.4,37.9-98.8,56.9-148.2c15.7-41,31.4-82,47.1-123
				c13.1-34.1,26.1-68.2,39.1-102.3c11.4-29.8,22.8-59.5,34.3-89.3c0.3-0.8,0.4-1.6,0.6-2.4C552.3,0,558.7,0,565,0z"/>
			<path class="st1" d="M1373,0c-2.2,6.3-4.2,12.7-6.6,19c-17.5,45.9-35.1,91.7-52.7,137.6c-16.1,41.9-32.2,83.8-48.3,125.8
				c-16.9,44.2-33.6,88.6-50.6,132.8c-11.4,29.8-23.2,59.5-34.6,89.2c-15.8,41.1-31.5,82.3-47.2,123.5
				c-14.6,38.1-29.2,76.1-43.7,114.2c-17.2,45-34.3,90.1-51.5,135.1c-17.2,44.9-34.5,89.6-51.8,134.5
				c-12.4,32.4-24.8,64.7-37.1,97.1c-1.4,3.8-3.6,6.3-7.5,7.8c-5.8,2.2-11.4,4.9-18,7.8c5.6-14.7,10.8-28.4,16.1-42.1
				c13.8-35.9,27.5-71.8,41.3-107.7c18.4-48,36.9-96,55.2-144.1c20.1-52.5,40-105.1,60.2-157.7c17-44.4,34.2-88.7,51.2-133
				c12.6-32.9,25-65.8,37.6-98.6c8.9-23.2,17.9-46.3,26.8-69.5c11.9-31,23.6-62.1,35.5-93.1c13.5-35.1,27.1-70.2,40.6-105.4
				c13.8-36.1,27.4-72.2,41.2-108.3c8.1-21.1,16.3-42.1,24.4-63.1c0.2-0.6,0.3-1.3,0.4-1.9C1360.3,0,1366.7,0,1373,0z"/>
			<path class="st1" d="M1416,0c-8.5,22.4-17,44.9-25.6,67.3c-17.6,45.9-35.3,91.8-52.9,137.7c-19.6,51.3-39,102.6-58.6,153.9
				c-14.7,38.4-29.7,76.7-44.4,115.2c-16.9,44.2-33.7,88.5-50.6,132.8c-13,33.9-26.1,67.8-39.1,101.7c-16.4,42.7-32.7,85.4-49,128.1
				c-16.2,42.4-32.5,84.7-48.7,127.1c-15.7,41.1-31.4,82.3-47.2,123.4c-0.9,2.3-3.2,4.6-5.4,5.7c-6.1,3.2-12.5,5.7-19.6,8.9
				c2.3-6.1,4.2-11.6,6.3-17c18.4-48.1,36.8-96.1,55.2-144.2c20.3-53,40.6-105.9,61-158.9c14.5-37.6,29-75.2,43.4-112.8
				c17.6-46.1,35.1-92.2,52.7-138.3c25.9-67.7,52-135.5,78-203.2c23.7-61.8,47.5-123.7,71.2-185.5c17-44.4,33.8-88.8,50.8-133.2
				c1.1-2.9,2.5-5.8,3.7-8.6C1403.3,0,1409.7,0,1416,0z"/>
			<path class="st1" d="M1459,0c-8.1,21-16.1,42-24.2,63c-14,36.4-28,72.8-42,109.2c-22.9,59.7-45.9,119.5-68.8,179.2
				c-20.2,52.6-40.2,105.3-60.4,158c-18.2,47.6-36.5,95.1-54.7,142.7c-18.8,49.1-37.6,98.3-56.4,147.4
				c-18.2,47.4-36.5,94.8-54.7,142.3c-15.8,41.1-31.4,82.3-47.3,123.4c-0.8,2-2.9,4-4.9,5c-6.3,3.2-12.8,5.8-19.9,9
				c5.7-15.1,11.2-29.4,16.7-43.8c12.5-32.9,25-65.8,37.6-98.6c10.1-26.3,20.4-52.4,30.5-78.7c20.5-53.4,40.9-106.9,61.3-160.3
				c17.1-44.7,34.2-89.4,51.3-134.1c13.3-34.7,26.6-69.4,39.9-104.1c15.9-41.5,31.9-82.9,47.8-124.4
				c19.2-50.2,38.3-100.5,57.6-150.7c20.3-53,40.8-106,61.1-159c3.2-8.4,6.2-16.9,9.3-25.4C1445.7,0,1452.3,0,1459,0z"/>
			<path class="st1" d="M523,0c-8.7,22.9-17.3,45.8-26,68.7c-13.1,34.3-26.3,68.5-39.4,102.7c-23.5,61-47,122.1-70.4,183.1
				c-14.9,38.8-29.4,77.8-44.3,116.7c-15.9,41.8-32,83.5-48.1,125.2c-20.6,53.6-41.3,107.1-61.8,160.7
				c-20.1,52.5-40.1,105.1-60.2,157.6c-19.7,51.4-39.5,102.7-59.3,154.1c-2.2,5.6-4.2,11.2-6.8,18.2c-3-9.9-5.6-18.3-7.9-26.7
				c-0.4-1.5-0.1-3.5,0.5-5c11.8-31,23.8-61.9,35.7-92.9c12.5-32.7,24.8-65.5,37.4-98.2c13.9-36.4,28-72.7,42-109.1
				c18-47,36.1-94,54.1-141c21.6-56.3,43.1-112.7,64.7-169.1c13.8-36.1,27.9-72.1,41.7-108.2c15.7-41,31.3-82,47-123
				C441,164,460.2,114,479.5,64c8.2-21.3,16.4-42.6,24.5-64C510.3,0,516.7,0,523,0z"/>
			<path class="st1" d="M1501,0c-6.2,16.3-12.3,32.7-18.6,49c-21.8,57.1-43.7,114.3-65.6,171.4c-19.3,50.5-38.7,101-58.1,151.5
				c-26.1,68-52.2,136.1-78.3,204.2c-18.1,47.3-36.1,94.6-54.3,141.8c-20.6,53.6-41.2,107.2-61.8,160.8
				c-15.5,40.6-31,81.2-46.5,121.7c-5.4,14.1-10.8,28.3-16.3,42.3c-0.6,1.5-1.8,3.3-3.2,4c-6.8,3.3-13.7,6.2-21.4,9.6
				c5.1-13.6,9.9-26.6,14.9-39.5c10.6-27.6,21.3-55.2,31.9-82.8c12.6-32.7,25.1-65.4,37.6-98.1c10.6-27.7,20.9-55.4,31.5-83
				c15.6-40.5,31.3-81,46.9-121.5c14-36.5,28-73.1,42-109.6c14.9-38.9,29.8-77.7,44.7-116.6c17.8-46.5,35.5-93.1,53.4-139.6
				c13.9-36.2,28-72.4,41.8-108.6c18.5-48.2,36.8-96.4,55.2-144.7c1.6-4.1,3.3-8.2,5-12.4C1488.3,0,1494.7,0,1501,0z"/>
			<path class="st1" d="M1544,0c-9,23.3-18,46.6-27,69.9c-16.5,42.8-32.9,85.7-49.3,128.5c-13.4,35-26.6,70-40,105
				c-13.9,36.4-27.9,72.7-41.9,109.1c-16.1,41.9-32.3,83.7-48.4,125.7c-21.3,55.6-42.4,111.2-63.6,166.8
				c-16.1,42.1-32.4,84.1-48.6,126.2c-14.5,37.9-28.9,75.9-43.4,113.8c-9.5,24.9-19.1,49.7-28.8,74.5c-0.6,1.6-1.6,3.6-3,4.2
				c-6.7,3.3-13.6,6.2-21.6,9.8c3-8,5.6-14.8,8.2-21.7c22.6-59,45.1-118,67.7-176.9c20.6-53.7,41.3-107.5,61.9-161.2
				c23.7-61.9,47.3-123.7,71-185.6c17.7-46.1,35.5-92.1,53.2-138.2c13.4-35,26.7-70.1,40.1-105.1c18.3-47.7,36.7-95.4,55-143.1
				c12.8-33.3,25.5-66.7,38.2-100c0.2-0.6,0.2-1.3,0.4-1.9C1530.7,0,1537.3,0,1544,0z"/>
			<path class="st1" d="M480,0c-2.8,7.9-5.3,15.9-8.3,23.7C448.5,84.1,425.2,144.6,402,205c-19.2,50.1-38.3,100.2-57.4,150.3
				C324.4,408,304.2,460.6,284,513.2c-22.5,58.8-44.9,117.6-67.4,176.4c-19,49.6-38.2,99.1-57.2,148.7
				c-19.3,50.4-38.4,100.8-57.6,151.2c-4.4,11.5-8.9,22.9-13.8,35.4c-2.4-8-4.3-15.1-6.8-22.1c-1.5-4.3-1.1-8,0.6-12.3
				c20.9-54.3,41.6-108.7,62.4-163.1c15.4-40.1,30.9-80.1,46.3-120.2c16.9-44,33.7-88.1,50.6-132.2c16.5-43,33-86,49.5-129
				c12.6-33,25.1-66.1,37.7-99.1c13-33.9,26.2-67.8,39.2-101.8c21.7-56.5,43.2-113,64.8-169.5c9.5-24.7,19.1-49.4,28.6-74.1
				c0.2-0.4,0.1-1,0.1-1.5C467.3,0,473.7,0,480,0z"/>
			<path class="st1" d="M1586,0c-7.2,18.9-14.2,37.9-21.5,56.8c-19.3,50.6-38.6,101.1-58,151.6c-16.4,42.7-32.9,85.3-49.3,127.9
				c-24.5,63.7-48.8,127.5-73.2,191.3c-18,47.2-36,94.3-54.1,141.5c-19.3,50.4-38.6,100.7-57.9,151.1
				c-18.5,48.2-36.9,96.4-55.4,144.6c-4.2,10.9-8.3,21.8-12.7,32.6c-0.7,1.7-2.4,3.5-4,4.3c-6.4,3.1-13,5.9-20.4,9.2
				c4.1-10.9,7.9-20.9,11.7-30.8c22.8-59.4,45.6-118.9,68.4-178.3c19.8-51.6,39.6-103.2,59.3-154.8c14-36.6,28-73.1,42-109.7
				c18.1-47.3,36.2-94.6,54.3-141.9c13.1-34.1,26.3-68.1,39.3-102.2c16.6-43.4,33.1-86.9,49.8-130.4c19-49.7,38.2-99.4,57.3-149
				c1.8-4.6,3.6-9.2,5.4-13.8C1573.3,0,1579.7,0,1586,0z"/>
			<path class="st1" d="M1629,0c-10.6,27.4-21.2,54.9-31.7,82.3c-20.1,52.2-40.2,104.4-60.1,156.6c-22.1,57.9-44.1,115.8-66.3,173.7
				c-18.1,47.3-36.4,94.5-54.5,141.8c-24.8,64.7-49.5,129.4-74.2,194.1c-24.6,64.2-49.3,128.3-73.9,192.5
				c-4.4,11.4-8.7,22.7-13.1,34.1c-0.6,1.4-1.6,3.2-2.8,3.8c-6.8,3.2-13.8,6.1-21.4,9.4c4.6-12.1,8.9-23.6,13.2-35
				c16.4-42.9,32.8-85.7,49.2-128.6c22.3-58.2,44.6-116.4,67-174.6c15.4-40,30.9-80.1,46.2-120.1c15.7-41,31.2-82,46.9-123
				c18.9-49.5,38-98.9,57-148.4c19.4-50.6,38.8-101.3,58.2-151.9c13.3-34.7,26.6-69.4,39.9-104.1c0.3-0.8,0.4-1.6,0.5-2.4
				C1615.7,0,1622.3,0,1629,0z"/>
			<path class="st1" d="M1671,0c-4.2,11.2-8.4,22.5-12.6,33.7c-11.8,31.2-23.6,62.5-35.6,93.6c-13.7,35.8-27.7,71.4-41.4,107.2
				c-16.8,43.6-33.4,87.2-50.1,130.8c-17.2,45-34.4,90-51.6,135.1c-13.3,34.7-26.6,69.4-39.9,104.2c-15.3,39.9-30.6,79.8-46,119.7
				c-19.8,51.6-39.6,103.1-59.4,154.7c-9.2,23.9-18.3,47.9-27.3,71.9c-1.2,3.2-2.9,5-6.3,6.3c-6.1,2.3-12,5.3-18.8,8.4
				c5.4-14,10.4-27.1,15.4-40.2c20.9-54.8,41.8-109.7,62.9-164.5c18.1-47.3,36.5-94.5,54.6-141.8c11.3-29.5,22.4-59,33.7-88.5
				c14.8-38.7,29.7-77.3,44.5-116c21.3-55.6,42.6-111.2,63.9-166.8c17-44.4,34.1-88.7,51-133.1c14-36.7,28-73.4,42.1-110.1
				c0.6-1.5,1.3-3.1,1.9-4.6C1658.3,0,1664.7,0,1671,0z"/>
			<path class="st1" d="M438,0c-10,26.3-20,52.6-30,78.9c-16.1,42.1-32.1,84.2-48.3,126.2C339,259.1,318.2,313,297.5,366.9
				c-19.7,51.3-39.1,102.7-58.8,154c-20.3,53-40.7,105.9-61,158.8c-17,44.3-33.8,88.7-50.8,133.1c-16.8,43.8-33.7,87.5-50.5,131.2
				c-2.2,5.8-4.4,11.7-7.2,18.9c-3-10.3-6.6-19.1-7.8-28.3c-0.6-4.7,2.9-9.9,4.7-14.8c22.3-58.2,44.6-116.4,66.9-174.5
				c19.4-50.5,38.8-101.1,58.1-151.6c15.3-39.8,30.6-79.6,45.8-119.4c16.9-44.1,33.7-88.2,50.6-132.2
				c22.9-59.7,45.8-119.4,68.7-179.2c15.8-41.1,31.6-82.2,47.4-123.3C408.9,26.3,413.9,13.2,419,0C425.3,0,431.7,0,438,0z"/>
			<path class="st1" d="M1714,0c-9,23.7-18,47.3-27.1,71c-13.7,35.6-27.5,71.2-41.2,106.8c-12.4,32.3-24.8,64.7-37.1,97.1
				c-18.6,48.5-37.1,97.1-55.7,145.6c-16.1,41.9-32.2,83.8-48.3,125.8c-21.3,55.7-42.6,111.5-63.9,167.3
				c-20.8,54.2-41.6,108.3-62.4,162.5c-6.5,17-12.9,34.1-19.4,51.2c-1.3,3.5-3.4,6.1-7,7.5c-5.9,2.4-11.6,5-18.6,8.1
				c3.4-9,6.4-16.8,9.3-24.6c20-52,40-104.1,59.9-156.1c21-54.8,41.9-109.7,62.8-164.5c22.9-59.9,46-119.8,69-179.7
				c20.1-52.3,40.3-104.7,60.3-157c15.3-40.1,30.6-80.2,45.9-120.3c13.6-35.5,27.2-71,40.8-106.4c4.3-11.3,8.5-22.8,12.7-34.2
				C1700.7,0,1707.3,0,1714,0z"/>
			<path class="st1" d="M1756,0c-6.3,16.9-12.6,33.9-19,50.8c-18.4,48.2-36.9,96.5-55.4,144.7c-18.9,49.4-37.9,98.9-56.9,148.3
				c-23.4,60.9-46.7,121.8-70,182.8c-24.4,63.6-48.7,127.1-73.1,190.7c-19.1,49.9-38.3,99.8-57.4,149.7
				c-4.8,12.6-9.5,25.3-14.3,37.9c-1.2,3.3-3,5.9-6.7,7.2c-6,2.2-11.8,5-18.8,8.1C1502.1,612.9,1619.6,306.5,1737,0
				C1743.3,0,1749.7,0,1756,0z"/>
			<path class="st1" d="M1799,0c-13.4,35-26.8,70-40.2,105c-16.9,44-33.9,88-50.8,132.1c-18,46.8-35.9,93.7-53.8,140.5
				c-20.4,53.1-40.8,106.2-61.1,159.3c-22.5,58.8-44.9,117.7-67.4,176.5c-21.6,56.5-43.2,113-64.9,169.4c-0.9,2.3-3.1,4.7-5.3,5.9
				c-6.1,3.1-12.5,5.5-19.6,8.6c4.3-11.5,8.3-22.2,12.4-32.9c16.9-44.2,33.9-88.4,50.8-132.6c17.2-44.7,34.4-89.3,51.5-134
				c14.6-38.2,29.1-76.5,43.7-114.8c14.5-37.9,29.2-75.7,43.7-113.6c15.7-40.8,31.3-81.7,47-122.5c19.6-51.1,39.2-102.2,58.8-153.2
				c11.5-29.9,22.9-59.9,34.3-89.9c0.5-1.2,0.7-2.5,1-3.8C1785.7,0,1792.3,0,1799,0z"/>
			<path class="st1" d="M395,0c-2.9,8.2-5.8,16.4-8.8,24.5c-17,44.9-34.1,89.8-51.3,134.7c-12.5,32.5-25.3,64.9-37.8,97.5
				c-16.8,43.8-33.4,87.6-50.1,131.4c-18.1,47.3-36.3,94.6-54.5,141.9c-12.8,33.5-25.6,66.9-38.4,100.4
				c-14.8,38.7-29.6,77.4-44.4,116.1C90.5,796.6,71.2,846.8,52,897c-0.3,0.7-0.7,1.4-1.4,3.1c-3-9.7-5.8-18.4-8.4-27.2
				c-0.3-0.9,0.4-2.2,0.8-3.3c12.7-33,25.4-65.9,38-98.9c24.4-63.9,48.8-127.8,73.3-191.7c17.3-45.1,34.6-90.2,51.9-135.3
				c22.2-57.9,44.4-115.8,66.7-173.7c22.4-58.3,44.8-116.6,67.2-175c12-31.3,24-62.6,36-94c0.1-0.3,0-0.7,0.1-1
				C382.3,0,388.7,0,395,0z"/>
			<path class="st1" d="M1841,0c-5.4,14.5-10.6,29-16.1,43.4c-26.8,69.9-53.7,139.7-80.5,209.6c-21.5,56-42.9,112.1-64.4,168.1
				c-20.8,54.4-41.7,108.8-62.5,163.2c-19.6,51.1-39.1,102.3-58.7,153.4c-15.8,41.3-31.8,82.6-47.7,123.9c-0.4,1.2-0.9,2.8-1.8,3.2
				c-7.1,3.3-14.4,6.4-22.5,9.9C1598.8,582.5,1710.4,291.3,1822,0C1828.3,0,1834.7,0,1841,0z"/>
			<path class="st1" d="M1884,0c-11.8,30.9-23.6,61.7-35.4,92.6c-13.3,34.7-26.7,69.4-40,104.2c-16.4,42.7-32.6,85.4-49,128.1
				c-19.4,50.5-38.8,100.9-58.2,151.4c-14.1,36.8-28.2,73.7-42.3,110.5c-22.1,57.7-44.2,115.5-66.3,173.2
				c-9.9,25.9-19.8,51.9-29.9,77.8c-0.9,2.2-3.2,4.4-5.4,5.6c-6.1,3.1-12.4,5.7-19.4,8.8c3.9-10.3,7.5-20,11.2-29.6
				c11.3-29.5,22.6-58.9,33.9-88.4c15.7-41,31.5-82,47.2-123c21.7-56.6,43.4-113.3,65.1-169.9c14.1-36.7,28.2-73.3,42.2-110
				c14.4-37.5,28.6-75,43-112.4c14.2-37.2,28.4-74.3,42.7-111.5c13.1-34.2,26.3-68.4,39.4-102.6c0.6-1.5,0.8-3.2,1.3-4.7
				C1870.7,0,1877.3,0,1884,0z"/>
			<path class="st1" d="M353,0c-8.8,23.2-17.6,46.4-26.5,69.6c-15.2,39.6-30.4,79.3-45.5,118.9c-17.5,45.8-35.1,91.5-52.6,137.3
				c-21.9,57.1-43.7,114.2-65.6,171.3c-19.4,50.5-38.9,101-58.2,151.5C84,702.2,63.5,755.7,43,809.3c-3.5,9.3-7.1,18.5-11.2,29.2
				c-3-10.1-5.7-18.7-8-27.5c-0.4-1.3,0.4-3.1,1-4.6C46,751,67.2,695.5,88.4,640.1c17.8-46.3,35.6-92.6,53.4-139
				c21.2-55.3,42.2-110.6,63.4-165.8c19.2-50.2,38.6-100.4,57.8-150.6c18.9-49.3,37.7-98.5,56.6-147.8c4.3-11.2,8.5-22.4,12.8-33.6
				c0.4-1,0.5-2.2,0.7-3.3C339.7,0,346.3,0,353,0z"/>
			<path class="st1" d="M1920,18c-9.3,24.1-18.7,48.1-28,72.2c-19.3,50.1-38.5,100.1-57.7,150.2c-16.9,44.1-33.6,88.2-50.4,132.3
				c-15.3,40.1-30.8,80.1-46.2,120.1c-18.1,47.1-36.2,94.3-54.3,141.4c-14.8,38.7-29.6,77.5-44.3,116.2c-8.4,22-16.7,43.9-25.2,65.8
				c-0.5,1.3-1.4,2.9-2.6,3.4c-7,3.2-14,6.2-21.9,9.5c4.7-12.4,9.1-24,13.5-35.6c12-31.2,24-62.3,36-93.5
				c18.2-47.4,36.4-94.9,54.5-142.3c23.3-60.9,46.5-121.7,69.8-182.6c16.9-44.2,33.9-88.4,50.9-132.6
				c20.4-53.2,40.7-106.5,61.1-159.7c10.6-27.6,21.2-55.2,31.8-82.9c4.3,0,8.7,0,13,0C1920,6,1920,12,1920,18z"/>
			<path class="st1" d="M310,0c-3.4,9.4-6.5,18.9-10.1,28.2C284.5,68.6,269,109,253.5,149.4c-18.2,47.4-36.4,94.8-54.6,142.3
				C170,366.8,141.3,441.9,112.5,517c-23.8,62.1-47.6,124.1-71.4,186.2c-9.2,23.9-18.3,47.9-27.8,72.9C11.3,770,10,764.6,8,759.6
				c-3.5-8.5-1.8-16.1,1.4-24.5c21.4-54.8,42.1-109.9,63.2-164.8c18-46.8,36.1-93.6,54-140.5c23.5-61.3,46.9-122.6,70.3-183.9
				c21-54.8,42-109.5,62.9-164.3C270.3,54.4,280.6,27.2,291,0C297.3,0,303.7,0,310,0z"/>
			<path class="st1" d="M1920,129c-5.6,14.2-11.4,28.3-16.9,42.6c-18.2,47.5-36.3,95-54.4,142.4c-14.9,38.9-29.8,77.7-44.7,116.6
				c-25.6,66.6-51.2,133.2-76.7,199.9c-20.7,54-41.4,108.1-62.3,162c-0.8,2.1-2.9,4.3-5,5.3c-6,3.1-12.2,5.6-19.4,8.8
				c3.8-10.1,7.3-19.3,10.8-28.4c14.9-39.2,29.8-78.4,44.9-117.5c17.4-45.3,34.9-90.5,52.3-135.8c17.6-45.7,35-91.5,52.5-137.2
				c14.8-38.5,29.6-77,44.4-115.6c17.9-46.6,35.7-93.3,53.6-140c6.9-18.1,14-36.1,21-54.2C1920,95,1920,112,1920,129z"/>
			<path class="st1" d="M0,648c6-15.6,12-31.1,18-46.7c11.8-30.5,23.6-61.1,35.3-91.6C71.3,463,89.1,416.4,107,369.8
				c14.5-37.8,28.8-75.6,43.3-113.3c21.2-55.2,42.4-110.4,63.6-165.6c11.2-29.2,22.3-58.4,33.4-87.6c0.4-1,0.5-2.2,0.7-3.3
				c6.7,0,13.3,0,20,0c-12.8,33.5-25.5,66.9-38.3,100.4c-15.1,39.3-30.2,78.5-45.3,117.8C170.6,254.1,157,290,143.2,326
				c-19.2,50.2-38.4,100.3-57.7,150.5C57.7,549.1,29.9,621.7,2,694.3c-0.5,1.3-1.3,2.5-2,3.7C0,681.3,0,664.7,0,648z"/>
			<path class="st1" d="M1920,240c-4.9,12.4-10,24.9-14.8,37.4c-11.6,30.1-23,60.2-34.5,90.4c-9.1,23.7-18.2,47.3-27.3,70.9
				c-12.1,31.5-24.1,62.9-36.1,94.4c-13.5,35.3-26.8,70.7-40.3,106c-13.5,35.2-27.1,70.3-40.7,105.4c-3.4,8.7-6.6,17.5-10.2,26.1
				c-0.7,1.7-2.4,3.5-4,4.3c-6.3,3.1-12.9,5.9-20.2,9.1c2.4-6.3,4.5-12,6.7-17.7c12.3-32.1,24.7-64.2,37-96.3
				c15.9-41.7,31.7-83.6,47.7-125.3c15.8-41.2,31.9-82.2,47.7-123.3c20.3-52.9,40.3-105.8,60.5-158.7c8.8-23.1,17.7-46.1,26.6-69.1
				c0.5-1.3,1.4-2.5,2.1-3.7C1920,206.7,1920,223.3,1920,240z"/>
			<path class="st1" d="M0,536c3.2-7.7,6.7-15.3,9.6-23c13.3-34.5,26.4-69.1,39.6-103.6C64.8,368.7,80.4,328,96,287.3
				c15.6-40.6,31.3-81.3,46.9-121.9c15.5-40.4,30.8-80.8,46.2-121.2C194.7,29.5,200.4,14.7,206,0c6.3,0,12.7,0,19,0
				c-3.9,10.6-7.6,21.3-11.7,31.8C188.3,97.4,163.1,163,138,228.5c-20.4,53.4-40.9,106.8-61.3,160.2c-18.5,48.2-37,96.4-55.5,144.5
				C14.1,551.5,7.1,569.8,0,588C0,570.7,0,553.3,0,536z"/>
			<path class="st1" d="M0,426c5.9-15,11.8-29.9,17.6-44.9c16.3-42.4,32.6-84.7,48.8-127.1C86,202.7,105.5,151.3,125.1,100
				c12.3-32.2,24.7-64.5,37.1-96.7c0.4-1.1,0.5-2.2,0.8-3.3c6.7,0,13.3,0,20,0c-15.1,39.5-30.1,78.9-45.2,118.4
				c-20.4,53.3-40.9,106.5-61.4,159.8c-16.8,43.7-33.6,87.5-50.3,131.2c-7.9,20.5-15.5,41.1-23.3,61.7c-0.7,1.8-1.8,3.3-2.7,5
				C0,459.3,0,442.7,0,426z"/>
			<path class="st1" d="M1920,352c-3,7-6.2,13.9-8.9,21c-22,57.1-43.9,114.2-65.8,171.4c-22.2,58.2-44.3,116.4-66.5,174.5
				c-3.6,9.5-7.2,19.1-11.2,28.5c-0.9,2-2.8,4-4.8,5c-6.2,3.1-12.6,5.7-19.8,8.8c3.7-9.8,7.1-18.9,10.5-27.9
				c16.8-43.9,33.6-87.9,50.5-131.8c13.8-35.9,27.8-71.8,41.6-107.7c18.5-48.3,36.9-96.7,55.4-145.1c6.2-16.3,12.6-32.5,19-48.7
				C1920,317.3,1920,334.7,1920,352z"/>
			<path class="st1" d="M140,0c-3.9,10.6-7.6,21.3-11.6,31.8c-10.8,28.6-21.8,57.1-32.7,85.7C80,158.3,64.3,199,48.6,239.8
				c-15.5,40.5-31,81-46.6,121.5c-0.5,1.3-1.3,2.5-2,3.7c0-16.7,0-33.3,0-50c4.4-11.1,8.8-22.2,13.1-33.4
				C34,227.2,55,172.8,75.9,118.3C91,78.9,106,39.4,121,0C127.3,0,133.7,0,140,0z"/>
			<path class="st1" d="M1920,462c-5.7,14.3-11.4,28.6-16.9,43c-12.1,31.3-24.1,62.6-36.1,93.9c-16,41.9-32,83.8-48.2,125.6
				c-0.8,2.1-3,4.2-5.1,5.2c-6.1,3.1-12.4,5.6-19.5,8.8c6.2-16.3,12.1-31.7,17.9-47c18.6-48.5,37.2-96.9,55.8-145.4
				c17.1-44.5,34.1-89,51.2-133.4c0.2-0.6,0.6-1.1,0.9-1.7C1920,428,1920,445,1920,462z"/>
			<path class="st1" d="M98,0C73.8,63,49.6,126,25.4,189.1c-7.8,20.4-15.5,40.8-23.3,61.3c-0.5,1.3-1.4,2.4-2.1,3.7
				c0-16.7,0-33.3,0-50c3.4-8.5,6.9-17,10.2-25.6c18.7-48.7,37.4-97.3,56-146C70.2,21.6,74,10.8,78,0C84.7,0,91.3,0,98,0z"/>
			<path class="st1" d="M1920,573c-7.7,19.5-15.4,39.1-23,58.7c-9.1,23.7-18.1,47.5-27.2,71.3c-0.6,1.5-2.2,3-3.6,3.7
				c-6.5,3.1-13.1,5.8-20.6,9.1c3.7-10,7.1-19.1,10.6-28.3c21-54.9,42.1-109.9,63.2-164.8c0.1-0.3,0.4-0.5,0.7-0.7
				C1920,539,1920,556,1920,573z"/>
			<g>
				<path class="st1" d="M55,0c-2.7,7.7-5.2,15.6-8.2,23.2C36,51.5,25,79.7,14,107.9C9.4,119.9,4.7,132,0,144c0-17,0-34,0-51
					c0.2-0.2,0.6-0.4,0.7-0.7C12.5,61.6,24.2,30.8,36,0C42.3,0,48.7,0,55,0z"/>
			</g>
			<path class="st1" d="M1920,683c-7.5,3.2-15,6.5-23.3,10.1c2.8-7.4,5.4-14.2,8-21c4.5-11.8,9-23.6,13.5-35.5
				c0.4-1,1.2-1.8,1.9-2.7C1920,650.3,1920,666.7,1920,683z"/>
		</g>
	</g>
	
		<image style="overflow:visible;" width="1920" height="1294" xlink:href="6DED14F9.jpg"  transform="matrix(1 0 0 1 1993.1843 -11.0631)">
	</image>
	<polygon class="st2" points="784.5,1298.7 1928.4,847.1 1913.9,1281.6 	"/>
	<polygon class="st3" points="850.2,1302.2 1924.2,887.5 1924.2,1303.8 	"/>
	<polygon class="st2" points="0.2,958.3 91.8,1311.4 0.2,1312.3 	"/>
	<polygon class="st3" points="-3.7,1020.5 87.8,1373.6 -3.7,1374.4 	"/>
</g>
</svg>
