<?xml version="1.0" encoding="UTF-8" standalone="no"?>
<!DOCTYPE svg PUBLIC "-//W3C//DTD SVG 1.1//EN" "http://www.w3.org/Graphics/SVG/1.1/DTD/svg11.dtd">
<svg width="100%" height="100%" viewBox="0 0 150 150" version="1.1" xmlns="http://www.w3.org/2000/svg" xmlns:xlink="http://www.w3.org/1999/xlink" xml:space="preserve" xmlns:serif="http://www.serif.com/" style="fill-rule:evenodd;clip-rule:evenodd;stroke-linejoin:round;stroke-miterlimit:1.41421;">
    <g transform="matrix(0.789474,0,0,0.789474,0,0)">
        <rect x="0" y="0" width="190" height="190" style="fill:rgb(196,26,23);"/>
    </g>
    <g transform="matrix(0.789474,0,0,0.789474,0,0)">
        <path d="M46.808,94.2L55.982,94.2L57.574,99.323L63.217,99.323L54.459,74.468L48.47,74.468L39.608,99.323L45.078,99.323L46.808,94.2ZM51.378,80.076L51.447,80.076L54.528,89.907L48.193,89.907L51.378,80.076Z" style="fill:white;"/>
        <path d="M74.157,78.865L81.669,78.865L81.669,74.468L61.452,74.468L61.452,78.865L68.964,78.865L68.964,99.323L74.157,99.323L74.157,78.865Z" style="fill:white;fill-rule:nonzero;"/>
        <path d="M103.674,74.468L85.395,74.468L85.395,99.323L104.262,99.323L104.262,94.927L90.484,94.927L90.484,88.488L102.6,88.488L102.6,84.092L90.484,84.092L90.484,78.865L103.674,78.865L103.674,74.468Z" style="fill:white;fill-rule:nonzero;"/>
        <path d="M108.5,99.323L113.589,99.323L113.589,89.6L118.955,89.6C122.798,89.6 123.005,90.915 123.005,94.308C122.932,95.999 123.119,97.692 123.559,99.327L129.306,99.327L129.306,98.669C128.198,98.254 128.198,97.354 128.198,93.719C128.198,89.08 127.09,88.319 125.048,87.419C127.483,86.507 129.049,84.096 128.891,81.5C128.891,79.354 127.679,74.473 121.067,74.473L108.5,74.473L108.5,99.323ZM113.589,85.407L113.589,78.761L120.062,78.761C123.108,78.761 123.697,80.7 123.697,82.015C123.697,84.473 122.382,85.407 119.681,85.407L113.589,85.407Z" style="fill:white;"/>
        <path d="M147.806,91.777L147.737,91.777L137.871,74.468L132.402,74.468L132.402,99.323L137.248,99.323L137.248,81.599L137.317,81.599L147.46,99.323L152.653,99.323L152.653,74.468L147.806,74.468L147.806,91.777Z" style="fill:white;fill-rule:nonzero;"/>
        <path d="M161.491,94.2L170.665,94.2L172.257,99.323L177.9,99.323L169.142,74.468L163.153,74.468L154.291,99.323L159.761,99.323L161.492,94.2L161.491,94.2ZM166.061,80.076L166.13,80.076L169.211,89.907L162.876,89.907L166.061,80.076Z" style="fill:white;"/>
        <path d="M37.367,74.56L29.855,74.56L25.424,94.153L25.355,94.153L20.855,74.56L13.273,74.56L13.273,99.415L18.12,99.415L18.12,78.645L18.189,78.645L22.724,99.415L27.813,99.415L32.452,78.645L32.521,78.645L32.521,99.415L37.367,99.415L37.367,74.56Z" style="fill:white;fill-rule:nonzero;"/>
        <path d="M84.241,108.785L84.241,109.015C84.617,109.039 84.847,109.088 84.847,109.415C84.847,109.924 84.423,110.444 83.89,111.086C83.402,110.185 83.047,109.218 82.836,108.215C83.563,107.852 84.919,107.173 84.919,106.071C84.889,105.43 84.337,104.927 83.696,104.957C82.596,104.957 81.746,105.926 81.746,107.44C81.746,107.598 81.758,107.707 81.831,108.445C80.244,109.135 78.742,109.789 78.742,111.352C78.778,112.404 79.653,113.25 80.706,113.25C80.77,113.25 80.834,113.247 80.898,113.241C81.801,113.205 82.667,112.868 83.357,112.284C83.725,112.855 84.349,113.213 85.028,113.241C85.644,113.222 86.218,112.917 86.578,112.417L86.445,112.284C86.211,112.503 85.906,112.632 85.585,112.647C85.085,112.647 84.568,112.32 84.119,111.508C84.785,110.648 85.245,109.908 85.427,109.667C85.754,109.219 85.887,109.037 86.481,108.989L86.481,108.783L84.241,108.785ZM79.881,111C79.881,109.583 81.843,108.844 81.855,108.844C82.116,109.933 82.545,110.975 83.127,111.932C82.668,112.349 82.075,112.59 81.455,112.61C81.441,112.61 81.428,112.611 81.414,112.611C80.572,112.611 79.879,111.918 79.879,111.076C79.879,111.05 79.88,111.025 79.881,111ZM82.788,107.839C82.746,107.522 82.726,107.202 82.728,106.882C82.728,106.216 82.837,105.344 83.528,105.344C83.722,105.344 84.085,105.344 84.085,106.022C84.085,107.027 83.516,107.378 82.785,107.839L82.788,107.839Z" style="fill:white;"/>
        <path d="M96.859,107.392L97.307,104.982L97.053,104.982C96.992,105.103 96.92,105.249 96.568,105.249C95.946,105.105 95.315,105.008 94.679,104.958C92.006,105.111 89.863,107.297 89.761,109.972C89.755,110.047 89.753,110.123 89.753,110.198C89.753,111.87 91.128,113.245 92.8,113.245C92.845,113.245 92.89,113.244 92.935,113.242C94.248,113.171 95.46,112.508 96.229,111.442L96.023,111.272C95.33,112.117 94.314,112.635 93.223,112.701C91.782,112.701 91.115,111.696 91.115,110.109C91.115,108.329 92.35,105.398 94.773,105.398C94.776,105.398 94.779,105.398 94.782,105.398C95.802,105.398 96.641,106.237 96.641,107.257C96.641,107.291 96.64,107.326 96.638,107.36L96.856,107.396L96.859,107.392Z" style="fill:white;fill-rule:nonzero;"/>
        <path d="M100.7,107.683C98.771,107.892 97.259,109.476 97.139,111.413C97.135,111.46 97.133,111.507 97.133,111.554C97.133,112.441 97.863,113.172 98.751,113.172C98.823,113.172 98.896,113.167 98.968,113.157C100.821,113.157 102.481,110.965 102.481,109.475C102.486,109.423 102.488,109.371 102.488,109.319C102.488,108.417 101.747,107.676 100.845,107.676C100.797,107.676 100.748,107.678 100.7,107.682L100.7,107.683ZM100.615,107.937C101.196,107.937 101.463,108.47 101.463,109.1C101.463,110.4 100.506,112.9 99.125,112.9C98.519,112.9 98.156,112.464 98.156,111.774C98.156,110.345 99.256,107.935 100.615,107.935L100.615,107.937Z" style="fill:white;"/>
        <path d="M111.853,111.607C111.393,112.176 111.078,112.564 110.848,112.564C110.703,112.564 110.666,112.528 110.666,112.322C110.666,112.152 111.647,108.906 111.647,108.495C111.651,108.465 111.653,108.436 111.653,108.406C111.653,108.01 111.328,107.685 110.932,107.684C110.132,107.684 109.152,108.75 108.304,110.155L108.28,110.131C108.469,109.59 108.619,109.035 108.728,108.472C108.728,107.963 108.474,107.685 108.013,107.685C106.996,107.685 105.748,109.562 105.385,110.156L105.361,110.132L106.039,107.71L106.003,107.686C105.361,107.819 104.719,107.94 104.065,108.062L104.065,108.256C104.659,108.256 104.84,108.28 104.84,108.547C104.84,108.814 103.847,112.229 103.653,113.028L104.562,113.028C104.805,111.976 105.201,110.965 105.737,110.028C106.064,109.544 106.985,108.32 107.53,108.32C107.639,108.32 107.797,108.32 107.797,108.647C107.797,108.877 106.961,111.857 106.646,113.031L107.554,113.031C107.755,111.956 108.141,110.923 108.693,109.979C109.069,109.386 109.941,108.32 110.437,108.32C110.439,108.32 110.442,108.32 110.444,108.32C110.58,108.32 110.693,108.432 110.693,108.569C110.693,108.579 110.692,108.589 110.691,108.599C110.691,108.841 109.746,112.22 109.746,112.547C109.746,112.716 109.746,113.141 110.255,113.141C110.933,113.141 111.539,112.463 111.975,111.841L112.036,111.756L111.854,111.611L111.853,111.607Z" style="fill:white;fill-rule:nonzero;"/>
        <path d="M121.233,111.607C120.773,112.176 120.458,112.564 120.228,112.564C120.083,112.564 120.046,112.528 120.046,112.322C120.046,112.152 121.027,108.906 121.027,108.495C121.031,108.465 121.033,108.436 121.033,108.406C121.033,108.01 120.708,107.685 120.312,107.684C119.512,107.684 118.532,108.75 117.684,110.155L117.66,110.131C117.849,109.59 117.999,109.035 118.108,108.472C118.108,107.963 117.854,107.685 117.393,107.685C116.376,107.685 115.128,109.562 114.765,110.156L114.741,110.132L115.419,107.71L115.383,107.686C114.741,107.819 114.099,107.94 113.445,108.062L113.445,108.256C114.039,108.256 114.22,108.28 114.22,108.547C114.22,108.814 113.227,112.229 113.033,113.028L113.941,113.028C114.184,111.976 114.58,110.965 115.116,110.028C115.443,109.544 116.364,108.32 116.909,108.32C117.018,108.32 117.175,108.32 117.175,108.647C117.175,108.877 116.339,111.857 116.024,113.031L116.932,113.031C117.133,111.956 117.519,110.923 118.071,109.979C118.447,109.386 119.319,108.32 119.815,108.32C119.817,108.32 119.82,108.32 119.822,108.32C119.958,108.32 120.071,108.432 120.071,108.569C120.071,108.579 120.07,108.589 120.069,108.599C120.069,108.841 119.124,112.22 119.124,112.547C119.124,112.716 119.124,113.141 119.633,113.141C120.311,113.141 120.917,112.463 121.353,111.841L121.414,111.756L121.232,111.611L121.233,111.607Z" style="fill:white;fill-rule:nonzero;"/>
        <path d="M127.852,111.607C127.428,112.14 127.089,112.564 126.859,112.564C126.726,112.564 126.714,112.431 126.714,112.37C126.763,112.045 126.84,111.725 126.944,111.413L127.901,107.792L127,107.792C126.684,108.83 126.236,109.823 125.668,110.747C125.256,111.377 124.493,112.515 123.968,112.515C123.714,112.515 123.677,112.261 123.714,112.103L124.814,107.703L124.778,107.679C124.179,107.823 123.572,107.932 122.961,108.006L122.961,108.176C123.461,108.176 123.688,108.176 123.688,108.527C123.688,108.854 122.767,111.906 122.767,112.439C122.767,112.972 122.997,113.154 123.433,113.154C124.523,113.154 125.419,111.64 126.243,110.271L126.279,110.271C126.056,111.002 125.882,111.746 125.758,112.5C125.753,112.529 125.751,112.559 125.751,112.588C125.751,112.886 125.996,113.131 126.294,113.131C126.305,113.131 126.316,113.131 126.327,113.13C126.932,113.13 127.247,112.815 128.011,111.713L127.841,111.604L127.852,111.607Z" style="fill:white;fill-rule:nonzero;"/>
        <path d="M134.531,111.607C134.083,112.176 133.78,112.564 133.538,112.564C133.431,112.561 133.344,112.472 133.344,112.364C133.344,112.362 133.344,112.36 133.344,112.358C133.344,111.995 134.313,109.003 134.313,108.482C134.316,108.457 134.317,108.432 134.317,108.407C134.317,108.005 133.986,107.674 133.584,107.674C133.548,107.674 133.512,107.677 133.477,107.682C132.472,107.682 131.357,109.366 130.788,110.262L130.764,110.238L131.539,107.707L131.503,107.683C130.849,107.816 130.195,107.937 129.541,108.059L129.541,108.253C130.195,108.253 130.316,108.386 130.316,108.568C130.316,108.822 129.505,111.656 129.129,113.025L130.037,113.025C130.266,111.963 130.676,110.949 131.248,110.025C131.684,109.347 132.448,108.305 133.029,108.305C133.259,108.305 133.329,108.475 133.329,108.693C133.329,109.177 132.429,112.133 132.429,112.423C132.429,112.774 132.453,113.138 133.01,113.138C133.664,113.138 134.088,112.581 134.694,111.769L134.524,111.612L134.531,111.607Z" style="fill:white;fill-rule:nonzero;"/>
        <path d="M138.34,111.644C137.84,112.344 137.492,112.589 137.347,112.589C137.246,112.586 137.162,112.508 137.153,112.407C137.197,112.136 137.262,111.868 137.347,111.607L138.413,107.707L138.377,107.683C137.905,107.768 136.899,107.962 136.439,107.983L136.439,108.177C137.105,108.177 137.202,108.238 137.202,108.492C137.202,108.831 136.245,111.835 136.245,112.404C136.245,112.622 136.245,113.155 136.814,113.155C137.492,113.155 138.025,112.489 138.498,111.774L138.341,111.641L138.34,111.644ZM138.849,105.77C138.855,105.425 138.588,105.13 138.243,105.104C137.926,105.115 137.671,105.379 137.671,105.697C137.671,105.717 137.672,105.738 137.674,105.758C137.672,105.777 137.671,105.796 137.671,105.815C137.671,106.129 137.93,106.388 138.244,106.388C138.248,106.388 138.251,106.388 138.255,106.388C138.585,106.375 138.849,106.1 138.849,105.77Z" style="fill:white;"/>
        <path d="M143.89,111.741C143.478,112.299 142.848,112.656 142.158,112.722C141.419,112.722 141.058,112.177 141.058,111.244C141.058,110.081 141.894,107.938 143.468,107.938C143.686,107.938 143.928,107.999 143.928,108.18C143.928,108.386 143.746,108.459 143.746,108.773C143.746,108.78 143.745,108.787 143.745,108.794C143.745,109.03 143.94,109.224 144.175,109.224C144.194,109.224 144.212,109.223 144.23,109.221C144.236,109.221 144.242,109.221 144.248,109.221C144.55,109.221 144.799,108.973 144.799,108.67C144.799,108.668 144.799,108.666 144.799,108.664C144.799,108.289 144.499,107.683 143.479,107.683C141.607,107.84 140.121,109.368 140.015,111.244C140.015,112.855 141.02,113.158 141.807,113.158C142.73,113.117 143.579,112.632 144.084,111.858L143.89,111.737L143.89,111.741Z" style="fill:white;fill-rule:nonzero;"/>
        <path d="M151.113,111.692C150.568,112.225 150.326,112.528 150.144,112.528C150.142,112.528 150.14,112.528 150.138,112.528C150.051,112.528 149.978,112.458 149.975,112.371C149.975,111.996 151.089,107.866 151.126,107.72L151.041,107.684L150.302,107.769L150.266,107.805L150.145,108.338L150.121,108.338C150.004,107.918 149.598,107.64 149.164,107.684C147.553,107.684 145.7,109.949 145.7,111.729C145.69,111.794 145.684,111.86 145.684,111.925C145.684,112.602 146.241,113.158 146.917,113.158C146.928,113.158 146.938,113.158 146.948,113.158C147.675,113.158 148.317,112.795 149.322,111.317L149.346,111.341C149.208,111.757 149.123,112.188 149.092,112.625C149.092,112.831 149.092,113.146 149.601,113.146C150.11,113.146 150.534,112.71 151.26,111.814L151.115,111.693L151.113,111.692ZM146.713,111.704C146.713,110.614 147.803,107.949 149.22,107.949C149.571,107.949 149.91,108.179 149.91,108.761C149.91,109.948 148.723,112.561 147.439,112.561C147.112,112.561 146.712,112.343 146.712,111.701L146.713,111.704Z" style="fill:white;"/>
        <path d="M155.77,107.841L154.8,107.841L155.139,106.593C155.163,106.493 155.139,106.387 155.054,106.411C154.945,106.387 154.896,106.496 154.848,106.556C154.479,107.021 154.032,107.418 153.528,107.731C153.322,107.84 152.983,107.925 152.91,108.031C152.878,108.09 152.869,108.16 152.886,108.225L153.786,108.225L152.914,111.556C152.8,111.922 152.707,112.294 152.635,112.67C152.653,112.943 152.882,113.158 153.155,113.158C153.175,113.158 153.196,113.156 153.216,113.154C153.846,113.154 154.316,112.621 154.936,111.688L154.778,111.603C154.478,111.991 154.051,112.56 153.809,112.56C153.806,112.56 153.804,112.56 153.801,112.56C153.698,112.56 153.614,112.476 153.614,112.373C153.614,112.367 153.614,112.36 153.615,112.354C153.613,112.32 153.617,112.286 153.627,112.254L154.693,108.221L155.71,108.221L155.771,107.833L155.77,107.841Z" style="fill:white;fill-rule:nonzero;"/>
        <path d="M158.873,111.644C158.373,112.344 158.025,112.589 157.88,112.589C157.779,112.586 157.695,112.508 157.686,112.407C157.73,112.136 157.795,111.868 157.88,111.607L158.946,107.707L158.91,107.683C158.438,107.768 157.432,107.962 156.972,107.983L156.972,108.177C157.638,108.177 157.735,108.238 157.735,108.492C157.735,108.831 156.778,111.835 156.778,112.404C156.778,112.622 156.778,113.155 157.347,113.155C158.025,113.155 158.558,112.489 159.031,111.774L158.873,111.641L158.873,111.644ZM159.382,105.77C159.388,105.425 159.121,105.13 158.776,105.104C158.459,105.115 158.204,105.379 158.204,105.697C158.204,105.717 158.205,105.738 158.207,105.758C158.205,105.777 158.204,105.796 158.204,105.815C158.204,106.129 158.463,106.388 158.777,106.388C158.781,106.388 158.784,106.388 158.788,106.388C159.118,106.375 159.382,106.1 159.382,105.77Z" style="fill:white;"/>
        <path d="M164.071,107.683C162.142,107.892 160.63,109.476 160.51,111.413C160.506,111.46 160.504,111.507 160.504,111.554C160.504,112.441 161.234,113.172 162.122,113.172C162.194,113.172 162.267,113.167 162.339,113.157C164.192,113.157 165.852,110.965 165.852,109.475C165.857,109.423 165.86,109.37 165.86,109.318C165.86,108.417 165.118,107.676 164.218,107.676C164.169,107.676 164.12,107.678 164.072,107.682L164.071,107.683ZM163.986,107.937C164.567,107.937 164.834,108.47 164.834,109.1C164.834,110.4 163.877,112.9 162.496,112.9C161.89,112.9 161.527,112.464 161.527,111.774C161.527,110.345 162.627,107.935 163.986,107.935L163.986,107.937Z" style="fill:white;"/>
        <path d="M172.447,111.607C171.999,112.176 171.696,112.564 171.454,112.564C171.347,112.561 171.26,112.472 171.26,112.364C171.26,112.362 171.26,112.36 171.26,112.358C171.26,111.995 172.229,109.003 172.229,108.482C172.232,108.457 172.233,108.432 172.233,108.407C172.233,108.005 171.902,107.674 171.5,107.674C171.464,107.674 171.428,107.677 171.393,107.682C170.388,107.682 169.273,109.366 168.704,110.262L168.68,110.238L169.455,107.707L169.419,107.683C168.765,107.816 168.111,107.937 167.457,108.059L167.457,108.253C168.111,108.253 168.232,108.386 168.232,108.568C168.232,108.822 167.421,111.656 167.045,113.025L167.953,113.025C168.182,111.963 168.592,110.949 169.164,110.025C169.6,109.347 170.364,108.305 170.944,108.305C171.174,108.305 171.244,108.475 171.244,108.693C171.244,109.177 170.344,112.133 170.344,112.423C170.344,112.774 170.368,113.138 170.925,113.138C171.579,113.138 172.003,112.581 172.609,111.769L172.439,111.612L172.447,111.607Z" style="fill:white;fill-rule:nonzero;"/>
        <path d="M174,111.256L173.758,113.182L173.952,113.182C174.025,113.049 174.073,112.928 174.243,112.928C174.594,112.928 175.079,113.158 175.443,113.158C175.501,113.164 175.56,113.167 175.618,113.167C176.509,113.167 177.243,112.434 177.243,111.542C177.243,111.54 177.243,111.537 177.243,111.535C177.243,110.505 175.765,109.428 175.765,108.665C175.761,108.635 175.758,108.605 175.758,108.575C175.758,108.239 176.035,107.963 176.37,107.963C176.387,107.963 176.403,107.964 176.419,107.965C177.206,107.965 177.497,108.665 177.558,109.358L177.752,109.358L177.994,107.674L177.824,107.674C177.765,107.808 177.631,107.894 177.485,107.892C177.122,107.892 176.879,107.686 176.334,107.686C176.283,107.68 176.231,107.677 176.179,107.677C175.466,107.677 174.879,108.264 174.879,108.977C174.879,108.994 174.879,109.012 174.88,109.03C174.88,109.963 176.321,111.13 176.321,111.925C176.325,111.957 176.326,111.99 176.326,112.022C176.326,112.504 175.931,112.902 175.449,112.906C174.468,112.906 174.274,111.792 174.189,111.259L174,111.256Z" style="fill:white;fill-rule:nonzero;"/>
        <path d="M12,113.024L14.955,113.024L14.955,112.83C14.434,112.769 14.131,112.73 14.131,112.345C14.136,112.081 14.181,111.82 14.264,111.57L15.754,106.205C15.96,105.442 16.154,105.418 16.747,105.305L16.747,105.111L13.756,105.111L13.756,105.305C14.277,105.366 14.604,105.405 14.604,105.826C14.593,106.081 14.548,106.334 14.471,106.577L12.981,111.93C12.775,112.681 12.593,112.717 12,112.83L12,113.024Z" style="fill:white;fill-rule:nonzero;"/>
        <path d="M21.994,111.607C21.546,112.176 21.243,112.564 21.001,112.564C20.894,112.561 20.807,112.472 20.807,112.364C20.807,112.362 20.807,112.36 20.807,112.358C20.807,111.995 21.776,109.003 21.776,108.482C21.779,108.457 21.78,108.432 21.78,108.407C21.78,108.005 21.449,107.674 21.047,107.674C21.011,107.674 20.975,107.677 20.94,107.682C19.935,107.682 18.82,109.366 18.251,110.262L18.227,110.238L19,107.707L18.964,107.683C18.31,107.816 17.656,107.937 17.002,108.059L17.002,108.253C17.656,108.253 17.777,108.386 17.777,108.568C17.777,108.822 16.966,111.656 16.59,113.025L17.5,113.025C17.729,111.963 18.139,110.949 18.711,110.025C19.147,109.347 19.911,108.305 20.491,108.305C20.721,108.305 20.791,108.475 20.791,108.693C20.791,109.177 19.891,112.133 19.891,112.423C19.891,112.774 19.915,113.138 20.472,113.138C21.126,113.138 21.55,112.581 22.156,111.769L21.986,111.612L21.994,111.607Z" style="fill:white;fill-rule:nonzero;"/>
        <path d="M23.877,108.228L24.967,108.228L23.9,113.315C23.8,113.799 23.488,115.277 22.713,115.277C22.706,115.278 22.699,115.278 22.692,115.278C22.582,115.278 22.49,115.192 22.483,115.083C22.483,114.95 22.592,114.95 22.592,114.744C22.575,114.491 22.36,114.293 22.107,114.296C21.671,114.32 21.671,114.78 21.671,114.817C21.746,115.266 22.164,115.582 22.616,115.532C24.033,115.532 24.716,113.582 25.051,112.104L25.923,108.228L27.243,108.228L27.316,107.84L26.009,107.84C26.118,107.222 26.481,105.079 27.475,105.079C27.632,105.079 27.754,105.127 27.754,105.224C27.754,105.357 27.633,105.357 27.633,105.624C27.633,105.63 27.633,105.637 27.633,105.643C27.633,105.885 27.832,106.084 28.074,106.084C28.08,106.084 28.087,106.084 28.093,106.084C28.361,106.084 28.584,105.868 28.593,105.6C28.593,105.358 28.399,104.813 27.527,104.813C26.001,104.813 25.395,106.813 25.081,107.841L23.962,107.841L23.877,108.229L23.877,108.228Z" style="fill:white;fill-rule:nonzero;"/>
        <path d="M30.833,107.683C28.904,107.892 27.392,109.476 27.272,111.413C27.268,111.46 27.266,111.507 27.266,111.554C27.266,112.441 27.996,113.172 28.884,113.172C28.956,113.172 29.029,113.167 29.101,113.157C30.954,113.157 32.614,110.965 32.614,109.475C32.619,109.423 32.621,109.371 32.621,109.319C32.621,108.417 31.88,107.676 30.978,107.676C30.93,107.676 30.881,107.678 30.833,107.682L30.833,107.683ZM30.748,107.937C31.329,107.937 31.596,108.47 31.596,109.1C31.596,110.4 30.639,112.9 29.258,112.9C28.652,112.9 28.289,112.464 28.289,111.774C28.289,110.345 29.389,107.935 30.748,107.935L30.748,107.937Z" style="fill:white;"/>
        <path d="M35.1,113.024C35.368,111.979 35.746,110.965 36.229,110C36.329,109.818 37.053,108.474 37.429,108.474C37.72,108.474 37.538,108.91 38.059,108.91C38.192,108.91 38.628,108.91 38.628,108.28C38.629,108.269 38.629,108.258 38.629,108.247C38.629,107.939 38.376,107.686 38.068,107.686C38.061,107.686 38.054,107.686 38.047,107.686C37.284,107.686 36.363,109.103 35.964,109.902L35.864,110.144L35.84,110.12L36.433,107.71L36.397,107.686C35.852,107.771 35.137,107.928 34.52,108.013L34.52,108.219C34.651,108.187 34.785,108.166 34.92,108.158C35.295,108.158 35.356,108.352 35.356,108.521C35.319,108.849 35.254,109.173 35.162,109.49L34.181,113.027L35.1,113.024Z" style="fill:white;fill-rule:nonzero;"/>
        <path d="M47.327,111.607C46.867,112.176 46.552,112.564 46.322,112.564C46.177,112.564 46.14,112.528 46.14,112.322C46.14,112.152 47.121,108.906 47.121,108.495C47.125,108.465 47.127,108.436 47.127,108.406C47.127,108.01 46.802,107.685 46.406,107.684C45.606,107.684 44.626,108.75 43.778,110.155L43.754,110.131C43.943,109.59 44.093,109.035 44.202,108.472C44.202,107.963 43.948,107.685 43.487,107.685C42.47,107.685 41.222,109.562 40.859,110.156L40.835,110.132L41.513,107.71L41.477,107.686C40.835,107.819 40.193,107.94 39.539,108.062L39.539,108.256C40.133,108.256 40.314,108.28 40.314,108.547C40.314,108.814 39.321,112.229 39.127,113.028L40.035,113.028C40.278,111.976 40.674,110.965 41.21,110.028C41.537,109.544 42.458,108.32 43.003,108.32C43.112,108.32 43.269,108.32 43.269,108.647C43.269,108.877 42.433,111.857 42.119,113.031L43.027,113.031C43.228,111.956 43.614,110.923 44.166,109.979C44.541,109.386 45.414,108.32 45.91,108.32C45.912,108.32 45.915,108.32 45.917,108.32C46.053,108.32 46.166,108.432 46.166,108.569C46.166,108.579 46.165,108.589 46.164,108.599C46.164,108.841 45.219,112.22 45.219,112.547C45.219,112.716 45.219,113.141 45.728,113.141C46.406,113.141 47.012,112.463 47.448,111.841L47.509,111.756L47.327,111.611L47.327,111.607Z" style="fill:white;fill-rule:nonzero;"/>
        <path d="M53.981,111.692C53.436,112.225 53.194,112.528 53.012,112.528C53.01,112.528 53.007,112.528 53.005,112.528C52.918,112.528 52.845,112.458 52.842,112.371C52.842,111.996 53.956,107.866 53.993,107.72L53.908,107.684L53.169,107.769L53.133,107.805L53.012,108.338L52.988,108.338C52.871,107.918 52.465,107.64 52.031,107.684C50.42,107.684 48.567,109.949 48.567,111.729C48.557,111.794 48.551,111.86 48.551,111.925C48.551,112.602 49.108,113.158 49.784,113.158C49.795,113.158 49.805,113.158 49.815,113.158C50.542,113.158 51.184,112.795 52.189,111.317L52.213,111.341C52.075,111.757 51.99,112.188 51.959,112.625C51.959,112.831 51.959,113.146 52.468,113.146C52.977,113.146 53.401,112.71 54.127,111.814L53.982,111.693L53.981,111.692ZM49.581,111.704C49.581,110.614 50.671,107.949 52.088,107.949C52.439,107.949 52.778,108.179 52.778,108.761C52.778,109.948 51.591,112.561 50.307,112.561C49.98,112.561 49.58,112.343 49.58,111.701L49.581,111.704Z" style="fill:white;"/>
        <path d="M58.638,107.841L57.669,107.841L58.008,106.593C58.032,106.493 58.008,106.387 57.923,106.411C57.814,106.387 57.766,106.496 57.717,106.556C57.348,107.021 56.901,107.418 56.397,107.731C56.191,107.84 55.852,107.925 55.779,108.031C55.747,108.09 55.738,108.16 55.755,108.225L56.655,108.225L55.783,111.556C55.669,111.922 55.576,112.294 55.504,112.67C55.521,112.943 55.75,113.158 56.023,113.158C56.044,113.158 56.064,113.156 56.085,113.154C56.715,113.154 57.185,112.621 57.805,111.688L57.648,111.603C57.348,111.991 56.921,112.56 56.679,112.56C56.676,112.56 56.674,112.56 56.671,112.56C56.568,112.56 56.484,112.476 56.484,112.373C56.484,112.367 56.484,112.36 56.485,112.354C56.483,112.32 56.487,112.286 56.497,112.254L57.563,108.221L58.58,108.221L58.64,107.833L58.638,107.841Z" style="fill:white;fill-rule:nonzero;"/>
        <path d="M61.741,111.644C61.241,112.344 60.893,112.589 60.748,112.589C60.647,112.586 60.563,112.508 60.554,112.407C60.598,112.136 60.663,111.868 60.748,111.607L61.814,107.707L61.778,107.683C61.306,107.768 60.3,107.962 59.84,107.983L59.84,108.177C60.506,108.177 60.603,108.238 60.603,108.492C60.603,108.831 59.646,111.835 59.646,112.404C59.646,112.622 59.646,113.155 60.215,113.155C60.893,113.155 61.426,112.489 61.899,111.774L61.742,111.641L61.741,111.644ZM62.25,105.77C62.256,105.425 61.988,105.131 61.644,105.104C61.327,105.115 61.072,105.379 61.072,105.697C61.072,105.717 61.073,105.738 61.075,105.758C61.073,105.777 61.072,105.796 61.072,105.815C61.072,106.129 61.331,106.388 61.645,106.388C61.649,106.388 61.652,106.388 61.656,106.388C61.986,106.375 62.25,106.1 62.25,105.77Z" style="fill:white;"/>
        <path d="M66.94,107.683C65.011,107.892 63.499,109.476 63.379,111.413C63.375,111.46 63.373,111.507 63.373,111.554C63.373,112.441 64.103,113.172 64.991,113.172C65.063,113.172 65.136,113.167 65.208,113.157C67.061,113.157 68.721,110.965 68.721,109.475C68.726,109.423 68.729,109.37 68.729,109.318C68.729,108.417 67.987,107.676 67.087,107.676C67.038,107.676 66.989,107.678 66.941,107.682L66.94,107.683ZM66.855,107.937C67.436,107.937 67.703,108.47 67.703,109.1C67.703,110.4 66.746,112.9 65.365,112.9C64.759,112.9 64.396,112.464 64.396,111.774C64.396,110.345 65.496,107.935 66.855,107.935L66.855,107.937Z" style="fill:white;"/>
        <path d="M75.315,111.607C74.867,112.176 74.564,112.564 74.322,112.564C74.215,112.561 74.128,112.472 74.128,112.364C74.128,112.362 74.128,112.36 74.128,112.358C74.128,111.995 75.097,109.003 75.097,108.482C75.1,108.457 75.101,108.432 75.101,108.407C75.101,108.005 74.77,107.674 74.368,107.674C74.332,107.674 74.296,107.677 74.261,107.682C73.256,107.682 72.141,109.366 71.572,110.262L71.548,110.238L72.323,107.707L72.287,107.683C71.633,107.816 70.979,107.937 70.325,108.059L70.325,108.253C70.979,108.253 71.1,108.386 71.1,108.568C71.1,108.822 70.288,111.656 69.913,113.025L70.821,113.025C71.051,111.963 71.46,110.949 72.032,110.025C72.468,109.347 73.232,108.305 73.813,108.305C74.043,108.305 74.113,108.475 74.113,108.693C74.113,109.177 73.213,112.133 73.213,112.423C73.213,112.774 73.237,113.138 73.794,113.138C74.448,113.138 74.872,112.581 75.478,111.769L75.308,111.612L75.315,111.607Z" style="fill:white;fill-rule:nonzero;"/>
    </g>
</svg>
