<svg id="Ebene_1" data-name="Ebene 1" xmlns="http://www.w3.org/2000/svg" width="190" height="50" viewBox="0 0 190 50">
  <title>a</title>
  <g>
    <path d="M46.808,24.731h9.174l1.592,5.123h5.643L54.459,5H48.47L39.608,29.855h5.47l1.731-5.123Zm4.57-14.124h.069l3.081,9.831H48.193l3.185-9.831Z" style="fill: #fff;fill-rule: evenodd"/>
    <polygon points="74.157 9.396 81.669 9.396 81.669 5 61.452 5 61.452 9.396 68.964 9.396 68.964 29.855 74.157 29.855 74.157 9.396 74.157 9.396" style="fill: #fff"/>
    <polygon points="103.674 5 85.395 5 85.395 29.855 104.262 29.855 104.262 25.458 90.484 25.458 90.484 19.02 102.6 19.02 102.6 14.623 90.484 14.623 90.484 9.396 103.674 9.396 103.674 5 103.674 5" style="fill: #fff"/>
    <path d="M108.5,29.855h5.089V20.127h5.366c3.843,0,4.05,1.315,4.05,4.708a16.571,16.571,0,0,0,.554,5.019h5.747V29.2c-1.108-.415-1.108-1.315-1.108-4.95,0-4.639-1.108-5.4-3.15-6.3a5.936,5.936,0,0,0,3.843-5.919c0-2.146-1.212-7.027-7.824-7.027H108.5V29.855Zm5.089-13.916V9.292h6.473c3.046,0,3.635,1.939,3.635,3.254,0,2.458-1.315,3.392-4.016,3.392Z" style="fill: #fff;fill-rule: evenodd"/>
    <polygon points="147.806 22.308 147.737 22.308 137.871 5 132.402 5 132.402 29.855 137.248 29.855 137.248 12.131 137.317 12.131 147.46 29.855 152.653 29.855 152.653 5 147.806 5 147.806 22.308 147.806 22.308" style="fill: #fff"/>
    <path d="M161.491,24.731h9.174l1.592,5.123H177.9L169.142,5h-5.989l-8.862,24.855h5.47l1.731-5.123Zm4.57-14.124h.069l3.081,9.831h-6.335l3.185-9.831Z" style="fill: #fff;fill-rule: evenodd"/>
    <polygon points="37.367 5.091 29.855 5.091 25.424 24.684 25.355 24.684 20.855 5.091 13.273 5.091 13.273 29.946 18.12 29.946 18.12 9.176 18.189 9.176 22.724 29.946 27.813 29.946 32.452 9.176 32.521 9.176 32.521 29.946 37.367 29.946 37.367 5.091 37.367 5.091" style="fill: #fff"/>
    <path d="M84.241,39.317v.23c.376.024.606.073.606.4,0,.509-.424,1.029-.957,1.671a10.6,10.6,0,0,1-1.054-2.871c.727-.363,2.083-1.042,2.083-2.144A1.17,1.17,0,0,0,83.7,35.489c-1.1,0-1.95.969-1.95,2.483,0,.158.012.267.085,1.005-1.587.69-3.089,1.344-3.089,2.907A1.965,1.965,0,0,0,80.9,43.774a4.054,4.054,0,0,0,2.459-.957,2.09,2.09,0,0,0,1.671.957,1.983,1.983,0,0,0,1.55-.824l-.133-.133a1.352,1.352,0,0,1-.86.363c-.5,0-1.017-.327-1.466-1.139.666-.86,1.126-1.6,1.308-1.841.327-.448.46-.63,1.054-.678v-.206Zm-4.36,2.216c0-1.417,1.962-2.156,1.974-2.156a10.789,10.789,0,0,0,1.272,3.088,2.612,2.612,0,0,1-1.672.678,1.535,1.535,0,0,1-1.575-1.611Zm2.907-3.161a6.93,6.93,0,0,1-.06-.957c0-.666.109-1.538.8-1.538.194,0,.557,0,.557.678,0,1.005-.569,1.356-1.3,1.817Z" style="fill: #fff;fill-rule: evenodd"/>
    <path d="M96.859,37.924l.448-2.41h-.254c-.061.121-.133.267-.485.267a12.8,12.8,0,0,0-1.889-.291A5.221,5.221,0,0,0,89.762,40.5a3.047,3.047,0,0,0,3.174,3.27,4.351,4.351,0,0,0,3.294-1.8l-.206-.17a3.926,3.926,0,0,1-2.8,1.429c-1.441,0-2.108-1.005-2.108-2.592,0-1.78,1.235-4.711,3.658-4.711a1.859,1.859,0,0,1,1.865,1.962l.218.036Z" style="fill: #fff"/>
    <path d="M100.7,38.215a4,4,0,0,0-3.561,3.73,1.618,1.618,0,0,0,1.829,1.744c1.853,0,3.513-2.192,3.513-3.682a1.643,1.643,0,0,0-1.781-1.793Zm-.085.254c.581,0,.848.533.848,1.163,0,1.3-.957,3.8-2.338,3.8-.606,0-.969-.436-.969-1.126,0-1.429,1.1-3.839,2.459-3.839Z" style="fill: #fff;fill-rule: evenodd"/>
    <path d="M111.853,42.139c-.46.569-.775.957-1.005.957-.145,0-.182-.036-.182-.242,0-.17.981-3.416.981-3.827a.722.722,0,0,0-.715-.811c-.8,0-1.78,1.066-2.628,2.471l-.024-.024A11.809,11.809,0,0,0,108.728,39c0-.509-.254-.787-.715-.787-1.017,0-2.265,1.877-2.628,2.471l-.024-.024.678-2.422L106,38.215c-.642.133-1.284.254-1.938.376v.194c.594,0,.775.024.775.291s-.993,3.682-1.187,4.481h.909a11.05,11.05,0,0,1,1.175-3c.327-.484,1.248-1.708,1.793-1.708.109,0,.267,0,.267.327,0,.23-.836,3.21-1.151,4.384h.908a9.516,9.516,0,0,1,1.139-3.052c.376-.593,1.248-1.659,1.744-1.659a.249.249,0,0,1,.254.279c0,.242-.945,3.621-.945,3.948,0,.169,0,.594.509.594.678,0,1.284-.678,1.72-1.3l.061-.085-.182-.145Z" style="fill: #fff"/>
    <path d="M121.233,42.139c-.46.569-.775.957-1.005.957-.145,0-.182-.036-.182-.242,0-.17.981-3.416.981-3.827a.722.722,0,0,0-.715-.811c-.8,0-1.78,1.066-2.628,2.471l-.024-.024A11.8,11.8,0,0,0,118.108,39c0-.509-.254-.787-.715-.787-1.017,0-2.265,1.877-2.628,2.471l-.024-.024.678-2.422-.036-.024c-.642.133-1.284.254-1.938.376v.194c.594,0,.775.024.775.291s-.993,3.682-1.187,4.481h.908a11.054,11.054,0,0,1,1.175-3c.327-.484,1.248-1.708,1.793-1.708.109,0,.266,0,.266.327,0,.23-.836,3.21-1.151,4.384h.908a9.516,9.516,0,0,1,1.139-3.052c.376-.593,1.248-1.659,1.744-1.659a.249.249,0,0,1,.254.279c0,.242-.945,3.621-.945,3.948,0,.169,0,.594.509.594.678,0,1.284-.678,1.72-1.3l.061-.085-.182-.145Z" style="fill: #fff"/>
    <path d="M127.852,42.139c-.424.533-.763.957-.993.957-.133,0-.145-.133-.145-.194a5.707,5.707,0,0,1,.23-.957l.957-3.621H127a12.729,12.729,0,0,1-1.332,2.955c-.412.63-1.175,1.768-1.7,1.768-.254,0-.291-.254-.254-.412l1.1-4.4-.036-.024a15.9,15.9,0,0,1-1.817.327v.17c.5,0,.727,0,.727.351,0,.327-.921,3.379-.921,3.912s.23.715.666.715c1.09,0,1.986-1.514,2.81-2.883h.036a17.088,17.088,0,0,0-.521,2.229.543.543,0,0,0,.569.63c.605,0,.92-.315,1.684-1.417l-.17-.109Z" style="fill: #fff"/>
    <path d="M134.531,42.139c-.448.569-.751.957-.993.957a.2.2,0,0,1-.194-.206c0-.363.969-3.355.969-3.876a.733.733,0,0,0-.836-.8c-1.005,0-2.12,1.684-2.689,2.58l-.024-.024.775-2.531-.036-.024c-.654.133-1.308.254-1.962.376v.194c.654,0,.775.133.775.315,0,.254-.811,3.088-1.187,4.457h.908a9.516,9.516,0,0,1,1.211-3c.436-.678,1.2-1.72,1.781-1.72.23,0,.3.17.3.388,0,.484-.9,3.44-.9,3.73,0,.351.024.715.581.715.654,0,1.078-.557,1.684-1.369l-.17-.157Z" style="fill: #fff"/>
    <path d="M138.34,42.175c-.5.7-.848.945-.993.945a.2.2,0,0,1-.194-.182,5.46,5.46,0,0,1,.194-.8l1.066-3.9-.036-.024c-.472.085-1.478.279-1.938.3v.194c.666,0,.763.061.763.315,0,.339-.957,3.343-.957,3.912,0,.218,0,.751.569.751.678,0,1.211-.666,1.684-1.381l-.157-.133Zm.509-5.874a.656.656,0,0,0-.606-.666.593.593,0,0,0-.569.654.573.573,0,0,0,.581.63.619.619,0,0,0,.594-.618Z" style="fill: #fff;fill-rule: evenodd"/>
    <path d="M143.89,42.272a2.444,2.444,0,0,1-1.732.981c-.739,0-1.1-.545-1.1-1.478,0-1.163.836-3.306,2.41-3.306.218,0,.46.061.46.242,0,.206-.182.279-.182.593a.43.43,0,0,0,.484.448.551.551,0,0,0,.569-.557c0-.375-.3-.981-1.32-.981a3.787,3.787,0,0,0-3.464,3.561c0,1.611,1.005,1.914,1.792,1.914a2.87,2.87,0,0,0,2.277-1.3l-.194-.121Z" style="fill: #fff"/>
    <path d="M151.113,42.224c-.545.533-.787.836-.969.836a.163.163,0,0,1-.169-.157c0-.375,1.114-4.505,1.151-4.651l-.085-.036-.739.085-.036.036-.121.533h-.024a.9.9,0,0,0-.957-.654c-1.611,0-3.464,2.265-3.464,4.045a1.233,1.233,0,0,0,1.248,1.429c.727,0,1.369-.363,2.374-1.841l.024.024a5.253,5.253,0,0,0-.254,1.284c0,.206,0,.521.509.521s.933-.436,1.659-1.332l-.145-.121Zm-4.4.012c0-1.09,1.09-3.755,2.507-3.755.351,0,.69.23.69.812,0,1.187-1.187,3.8-2.471,3.8-.327,0-.727-.218-.727-.86Z" style="fill: #fff;fill-rule: evenodd"/>
    <path d="M155.77,38.372H154.8l.339-1.248c.024-.1,0-.206-.085-.182-.109-.024-.158.085-.206.145a5.159,5.159,0,0,1-1.32,1.175c-.206.109-.545.194-.618.3a.265.265,0,0,0-.024.194h.9l-.872,3.331a9.973,9.973,0,0,0-.279,1.114.521.521,0,0,0,.581.484c.63,0,1.1-.533,1.72-1.466l-.158-.085c-.3.388-.727.957-.969.957a.187.187,0,0,1-.194-.206.267.267,0,0,1,.012-.1l1.066-4.033h1.017l.061-.388Z" style="fill: #fff"/>
    <path d="M158.873,42.175c-.5.7-.848.945-.993.945a.2.2,0,0,1-.194-.182,5.461,5.461,0,0,1,.194-.8l1.066-3.9-.036-.024c-.472.085-1.478.279-1.938.3v.194c.666,0,.763.061.763.315,0,.339-.957,3.343-.957,3.912,0,.218,0,.751.569.751.678,0,1.211-.666,1.684-1.381l-.158-.133Zm.509-5.874a.656.656,0,0,0-.606-.666.593.593,0,0,0-.569.654.573.573,0,0,0,.581.63.619.619,0,0,0,.594-.618Z" style="fill: #fff;fill-rule: evenodd"/>
    <path d="M164.071,38.215a4,4,0,0,0-3.561,3.73,1.618,1.618,0,0,0,1.829,1.744c1.853,0,3.513-2.192,3.513-3.682a1.642,1.642,0,0,0-1.78-1.793Zm-.085.254c.581,0,.848.533.848,1.163,0,1.3-.957,3.8-2.338,3.8-.606,0-.969-.436-.969-1.126,0-1.429,1.1-3.839,2.459-3.839Z" style="fill: #fff;fill-rule: evenodd"/>
    <path d="M172.447,42.139c-.448.569-.751.957-.993.957a.2.2,0,0,1-.194-.206c0-.363.969-3.355.969-3.876a.733.733,0,0,0-.836-.8c-1.005,0-2.12,1.684-2.689,2.58l-.024-.024.775-2.531-.036-.024c-.654.133-1.308.254-1.962.376v.194c.654,0,.775.133.775.315,0,.254-.811,3.088-1.187,4.457h.908a9.515,9.515,0,0,1,1.211-3c.436-.678,1.2-1.72,1.78-1.72.23,0,.3.17.3.388,0,.484-.9,3.44-.9,3.73,0,.351.024.715.581.715.654,0,1.078-.557,1.684-1.369l-.17-.157Z" style="fill: #fff"/>
    <path d="M174,41.788l-.242,1.926h.194c.073-.133.121-.254.291-.254.351,0,.836.23,1.2.23a1.625,1.625,0,0,0,1.8-1.623c0-1.03-1.478-2.107-1.478-2.87a.612.612,0,0,1,.654-.7c.787,0,1.078.7,1.139,1.393h.194L178,38.2h-.17a.364.364,0,0,1-.339.218c-.363,0-.606-.206-1.151-.206a1.3,1.3,0,0,0-1.454,1.344c0,.933,1.441,2.1,1.441,2.895a.884.884,0,0,1-.872.981c-.981,0-1.175-1.114-1.26-1.647Z" style="fill: #fff"/>
    <path d="M12,43.556h2.955v-.194c-.521-.061-.824-.1-.824-.485a2.592,2.592,0,0,1,.133-.775l1.49-5.365c.206-.763.4-.787.993-.9v-.194H13.756v.194c.521.061.848.1.848.521a2.884,2.884,0,0,1-.133.751l-1.49,5.353c-.206.751-.388.787-.981.9v.194Z" style="fill: #fff"/>
    <path d="M21.994,42.139c-.448.569-.751.957-.993.957a.2.2,0,0,1-.194-.206c0-.363.969-3.355.969-3.876a.733.733,0,0,0-.836-.8c-1.005,0-2.12,1.684-2.689,2.58l-.024-.024L19,38.239l-.036-.024c-.654.133-1.308.254-1.962.376v.194c.654,0,.775.133.775.315,0,.254-.811,3.088-1.187,4.457H17.5a9.515,9.515,0,0,1,1.211-3c.436-.678,1.2-1.72,1.78-1.72.23,0,.3.17.3.388,0,.484-.9,3.44-.9,3.73,0,.351.024.715.581.715.654,0,1.078-.557,1.684-1.369l-.17-.157Z" style="fill: #fff"/>
    <path d="M23.877,38.76h1.09L23.9,43.847c-.1.484-.412,1.962-1.187,1.962a.209.209,0,0,1-.23-.194c0-.133.109-.133.109-.339a.481.481,0,0,0-.485-.448c-.436.024-.436.484-.436.521a.862.862,0,0,0,.945.715c1.417,0,2.1-1.95,2.435-3.428l.872-3.876h1.32l.073-.388H26.009c.109-.618.472-2.761,1.466-2.761.157,0,.279.048.279.145,0,.133-.121.133-.121.4a.441.441,0,0,0,.46.46.5.5,0,0,0,.5-.484c0-.242-.194-.787-1.066-.787-1.526,0-2.132,2-2.446,3.028H23.962l-.085.388Z" style="fill: #fff"/>
    <path d="M30.833,38.215a4,4,0,0,0-3.561,3.73A1.618,1.618,0,0,0,29.1,43.689c1.853,0,3.513-2.192,3.513-3.682a1.643,1.643,0,0,0-1.781-1.793Zm-.085.254c.581,0,.848.533.848,1.163,0,1.3-.957,3.8-2.338,3.8-.606,0-.969-.436-.969-1.126,0-1.429,1.1-3.839,2.459-3.839Z" style="fill: #fff;fill-rule: evenodd"/>
    <path d="M35.1,43.556a15.188,15.188,0,0,1,1.126-3.028c.1-.182.824-1.526,1.2-1.526.291,0,.109.436.63.436.133,0,.569,0,.569-.63a.561.561,0,0,0-.581-.594c-.763,0-1.684,1.417-2.083,2.216l-.1.242-.024-.024.593-2.41-.036-.024c-.545.085-1.26.242-1.877.327v.206a2.288,2.288,0,0,1,.4-.061c.375,0,.436.194.436.363a5.766,5.766,0,0,1-.194.969l-.981,3.537Z" style="fill: #fff"/>
    <path d="M47.327,42.139c-.46.569-.775.957-1.005.957-.145,0-.182-.036-.182-.242,0-.17.981-3.416.981-3.827a.722.722,0,0,0-.715-.811c-.8,0-1.78,1.066-2.628,2.471l-.024-.024A11.8,11.8,0,0,0,44.2,39c0-.509-.254-.787-.715-.787-1.017,0-2.265,1.877-2.628,2.471l-.024-.024.678-2.422-.036-.024c-.642.133-1.284.254-1.938.376v.194c.594,0,.775.024.775.291s-.993,3.682-1.187,4.481h.908a11.053,11.053,0,0,1,1.175-3c.327-.484,1.248-1.708,1.793-1.708.109,0,.266,0,.266.327,0,.23-.836,3.21-1.15,4.384h.908A9.516,9.516,0,0,1,44.165,40.5c.375-.593,1.248-1.659,1.744-1.659a.249.249,0,0,1,.254.279c0,.242-.945,3.621-.945,3.948,0,.169,0,.594.509.594.678,0,1.284-.678,1.72-1.3l.061-.085-.182-.145Z" style="fill: #fff"/>
    <path d="M53.981,42.224c-.545.533-.787.836-.969.836a.163.163,0,0,1-.17-.157c0-.375,1.114-4.505,1.151-4.651l-.085-.036-.739.085-.036.036-.121.533h-.024a.9.9,0,0,0-.957-.654c-1.611,0-3.464,2.265-3.464,4.045a1.233,1.233,0,0,0,1.248,1.429c.727,0,1.369-.363,2.374-1.841l.024.024a5.246,5.246,0,0,0-.254,1.284c0,.206,0,.521.509.521s.933-.436,1.659-1.332l-.145-.121Zm-4.4.012c0-1.09,1.09-3.755,2.507-3.755.351,0,.69.23.69.812,0,1.187-1.187,3.8-2.471,3.8-.327,0-.727-.218-.727-.86Z" style="fill: #fff;fill-rule: evenodd"/>
    <path d="M58.638,38.372h-.969l.339-1.248c.024-.1,0-.206-.085-.182-.109-.024-.157.085-.206.145a5.155,5.155,0,0,1-1.32,1.175c-.206.109-.545.194-.618.3a.266.266,0,0,0-.024.194h.9L55.78,42.09A9.973,9.973,0,0,0,55.5,43.2a.52.52,0,0,0,.581.484c.63,0,1.1-.533,1.72-1.466l-.157-.085c-.3.388-.727.957-.969.957a.187.187,0,0,1-.194-.206.267.267,0,0,1,.012-.1L57.56,38.76h1.017l.06-.388Z" style="fill: #fff"/>
    <path d="M61.741,42.175c-.5.7-.848.945-.993.945a.2.2,0,0,1-.194-.182,5.459,5.459,0,0,1,.194-.8l1.066-3.9-.036-.024c-.472.085-1.478.279-1.938.3v.194c.666,0,.763.061.763.315,0,.339-.957,3.343-.957,3.912,0,.218,0,.751.569.751.678,0,1.211-.666,1.684-1.381l-.157-.133ZM62.25,36.3a.657.657,0,0,0-.606-.666.593.593,0,0,0-.569.654.573.573,0,0,0,.581.63.619.619,0,0,0,.594-.618Z" style="fill: #fff;fill-rule: evenodd"/>
    <path d="M66.94,38.215a4,4,0,0,0-3.561,3.73,1.618,1.618,0,0,0,1.829,1.744c1.853,0,3.513-2.192,3.513-3.682a1.642,1.642,0,0,0-1.78-1.793Zm-.085.254c.581,0,.848.533.848,1.163,0,1.3-.957,3.8-2.338,3.8-.606,0-.969-.436-.969-1.126,0-1.429,1.1-3.839,2.459-3.839Z" style="fill: #fff;fill-rule: evenodd"/>
    <path d="M75.315,42.139c-.448.569-.751.957-.993.957a.2.2,0,0,1-.194-.206c0-.363.969-3.355.969-3.876a.733.733,0,0,0-.836-.8c-1.005,0-2.12,1.684-2.689,2.58l-.024-.024.775-2.531-.036-.024c-.654.133-1.308.254-1.962.376v.194c.654,0,.775.133.775.315,0,.254-.812,3.088-1.187,4.457h.908a9.519,9.519,0,0,1,1.211-3c.436-.678,1.2-1.72,1.781-1.72.23,0,.3.17.3.388,0,.484-.9,3.44-.9,3.73,0,.351.024.715.581.715.654,0,1.078-.557,1.684-1.369l-.17-.157Z" style="fill: #fff"/>
  </g>
</svg>
