<svg id="Ebene_1" data-name="Ebene 1" xmlns="http://www.w3.org/2000/svg" width="90" height="90" viewBox="0 0 60 60">
  <title>footer_social</title>
  <path d="M44,21.363a11.473,11.473,0,0,1-3.3.908,5.856,5.856,0,0,0,2.525-3.163A11.823,11.823,0,0,1,39.583,20.5a5.748,5.748,0,0,0-9.94,3.9,5.25,5.25,0,0,0,.152,1.3A16.318,16.318,0,0,1,17.95,19.73a5.822,5.822,0,0,0-.771,2.874,5.722,5.722,0,0,0,2.557,4.765,5.62,5.62,0,0,1-2.6-.726v.075a5.739,5.739,0,0,0,4.6,5.612,5.734,5.734,0,0,1-2.585.092A5.72,5.72,0,0,0,24.5,36.384a11.441,11.441,0,0,1-7.123,2.449c-.471,0-.926-.029-1.378-.074a16.346,16.346,0,0,0,8.8,2.555A16.168,16.168,0,0,0,41.141,25.069c0-.257,0-.5-.016-.742A11.342,11.342,0,0,0,44,21.363Z" style="fill: #fff"/>
</svg>
